<svg xmlns="http://www.w3.org/2000/svg" viewBox="0 0 500 500"><g id="freepik--background-complete--inject-10"><polygon points="142.15 465.98 141.15 465.98 141.15 317.89 171.09 277.03 171.09 241.25 172.09 241.25 172.09 277.35 171.99 277.49 142.15 318.22 142.15 465.98" style="fill:#ebebeb"></polygon><path d="M171.59,241.8a3.16,3.16,0,1,1,3.16-3.16A3.16,3.16,0,0,1,171.59,241.8Zm0-5.32a2.16,2.16,0,1,0,2.16,2.16A2.16,2.16,0,0,0,171.59,236.48Z" style="fill:#ebebeb"></path><polygon points="149.86 465.98 148.86 465.98 148.86 322.83 148.95 322.7 178.8 281.96 178.8 262.25 179.8 262.25 179.8 282.29 179.7 282.42 149.86 323.16 149.86 465.98" style="fill:#ebebeb"></polygon><path d="M179.3,262.8a3.17,3.17,0,1,1,3.16-3.16A3.17,3.17,0,0,1,179.3,262.8Zm0-5.33a2.17,2.17,0,1,0,2.16,2.17A2.17,2.17,0,0,0,179.3,257.47Z" style="fill:#ebebeb"></path><rect x="133.71" y="272.41" width="1" height="193.57" style="fill:#ebebeb"></rect><path d="M134.21,272.91a3.16,3.16,0,1,1,3.17-3.16A3.16,3.16,0,0,1,134.21,272.91Zm0-5.32a2.16,2.16,0,1,0,2.17,2.16A2.16,2.16,0,0,0,134.21,267.59Z" style="fill:#ebebeb"></path><polygon points="127.56 465.3 126.56 465.3 126.56 330.6 106.23 292.26 106.23 213.4 107.23 213.4 107.23 292.01 127.56 330.35 127.56 465.3" style="fill:#ebebeb"></polygon><path d="M106.73,213.9a3.16,3.16,0,1,1,3.17-3.16A3.17,3.17,0,0,1,106.73,213.9Zm0-5.32a2.16,2.16,0,1,0,2.17,2.16A2.16,2.16,0,0,0,106.73,208.58Z" style="fill:#ebebeb"></path><polygon points="120.45 465.43 119.45 465.43 119.45 334.7 95.49 292.32 95.49 246.91 96.49 246.91 96.49 292.05 120.45 334.44 120.45 465.43" style="fill:#ebebeb"></polygon><path d="M96,247.41a3.16,3.16,0,1,1,3.16-3.16A3.15,3.15,0,0,1,96,247.41Zm0-5.32a2.16,2.16,0,1,0,2.16,2.16A2.16,2.16,0,0,0,96,242.09Z" style="fill:#ebebeb"></path><polygon points="358.86 465.98 357.86 465.98 357.86 408.99 327.91 368.12 327.91 332.02 328.91 332.02 328.91 367.8 358.86 408.66 358.86 465.98" style="fill:#ebebeb"></polygon><path d="M328.41,332.57a3.17,3.17,0,1,1,3.16-3.17A3.17,3.17,0,0,1,328.41,332.57Zm0-5.33a2.17,2.17,0,1,0,2.16,2.16A2.16,2.16,0,0,0,328.41,327.24Z" style="fill:#ebebeb"></path><polygon points="351.14 465.98 350.14 465.98 350.14 413.93 320.2 373.06 320.2 353.02 321.2 353.02 321.2 372.73 351.14 413.6 351.14 465.98" style="fill:#ebebeb"></polygon><path d="M320.7,353.57a3.17,3.17,0,1,1,3.16-3.17A3.17,3.17,0,0,1,320.7,353.57Zm0-5.33a2.17,2.17,0,1,0,2.16,2.16A2.16,2.16,0,0,0,320.7,348.24Z" style="fill:#ebebeb"></path><rect x="365.29" y="323.18" width="1" height="142.8" style="fill:#ebebeb"></rect><path d="M365.79,323.68a3.16,3.16,0,1,1,3.16-3.16A3.17,3.17,0,0,1,365.79,323.68Zm0-5.32a2.16,2.16,0,1,0,2.16,2.16A2.17,2.17,0,0,0,365.79,318.36Z" style="fill:#ebebeb"></path><polygon points="373.44 465.3 372.44 465.3 372.44 421.12 392.77 382.78 392.77 294.17 393.77 294.17 393.77 383.03 373.44 421.37 373.44 465.3" style="fill:#ebebeb"></polygon><path d="M393.27,294.67a3.16,3.16,0,1,1,3.16-3.16A3.17,3.17,0,0,1,393.27,294.67Zm0-5.32a2.16,2.16,0,1,0,2.16,2.16A2.17,2.17,0,0,0,393.27,289.35Z" style="fill:#ebebeb"></path><polygon points="380.55 465.43 379.55 465.43 379.55 425.21 403.51 382.82 403.51 327.68 404.51 327.68 404.51 383.09 380.55 425.47 380.55 465.43" style="fill:#ebebeb"></polygon><path d="M404,328.18a3.16,3.16,0,1,1,3.16-3.16A3.16,3.16,0,0,1,404,328.18Zm0-5.32a2.16,2.16,0,1,0,2.16,2.16A2.16,2.16,0,0,0,404,322.86Z" style="fill:#ebebeb"></path><path d="M422.61,320.61l-10.53-6.54-2,3.23a3,3,0,0,1-2.77,1.37,14.3,14.3,0,0,0-1.85-.06,3,3,0,0,1-2.68-1.54L401,313.73l-10.92,5.86,1.79,3.34a3,3,0,0,1-.2,3.08c-.35.51-.68,1-1,1.57a2.94,2.94,0,0,1-2.67,1.56l-3.79-.12-.39,12.38,3.81.12a2.92,2.92,0,0,1,2.56,1.72c.13.28.27.55.41.82s.3.53.46.79a3,3,0,0,1,0,3.08l-2,3.25,10.53,6.53,2-3.23a3,3,0,0,1,2.78-1.37,14.09,14.09,0,0,0,1.84.06,3,3,0,0,1,2.67,1.54l1.8,3.35,10.92-5.86-1.79-3.35a2.93,2.93,0,0,1,.19-3.07,15.09,15.09,0,0,0,1-1.57,3,3,0,0,1,2.68-1.56l3.8.12.38-12.39-3.8-.12a2.94,2.94,0,0,1-2.56-1.72c-.13-.27-.26-.55-.41-.82s-.29-.53-.45-.79a3,3,0,0,1,0-3.1Zm-7.82,10.48a10.15,10.15,0,1,1-13.74-4.15A10.15,10.15,0,0,1,414.79,331.09Z" style="fill:#ebebeb"></path><path d="M382.07,379.23l-4.34-7.52-2.3,1.33a2.05,2.05,0,0,1-2.16-.08c-.36-.23-.74-.45-1.13-.65a2.06,2.06,0,0,1-1.14-1.83v-2.66h-8.68v2.66a2.06,2.06,0,0,1-1.14,1.83c-.39.2-.77.42-1.13.65a2.05,2.05,0,0,1-2.16.08l-2.3-1.33-4.34,7.52,2.31,1.33a2.05,2.05,0,0,1,1,1.91c0,.22,0,.43,0,.64s0,.43,0,.64a2.06,2.06,0,0,1-1,1.91L351.25,387l4.34,7.52,2.3-1.33a2.07,2.07,0,0,1,2.17.07,11.27,11.27,0,0,0,1.12.65,2.07,2.07,0,0,1,1.14,1.83v2.66H371v-2.66a2.07,2.07,0,0,1,1.14-1.83,11.27,11.27,0,0,0,1.12-.65,2.07,2.07,0,0,1,2.17-.07l2.3,1.33,4.34-7.52-2.31-1.33a2.06,2.06,0,0,1-1-1.91c0-.22,0-.43,0-.65s0-.42,0-.64a2.05,2.05,0,0,1,1-1.91Zm-8.3,3.88a7.11,7.11,0,1,1-7.11-7.11A7.11,7.11,0,0,1,373.77,383.11Z" style="fill:#dbdbdb"></path><path d="M354.5,351.55l-2.79-4.83-1.48.85a1.34,1.34,0,0,1-1.39,0,5.2,5.2,0,0,0-.72-.42,1.32,1.32,0,0,1-.73-1.18v-1.71H341.8v1.71a1.32,1.32,0,0,1-.73,1.18,5.2,5.2,0,0,0-.72.42,1.34,1.34,0,0,1-1.39,0l-1.48-.85-2.79,4.83,1.48.86a1.31,1.31,0,0,1,.65,1.23c0,.13,0,.27,0,.41s0,.27,0,.41a1.33,1.33,0,0,1-.64,1.23l-1.49.86,2.79,4.83,1.48-.86a1.34,1.34,0,0,1,1.39.05q.34.23.72.42a1.32,1.32,0,0,1,.73,1.18v1.71h5.59v-1.71a1.32,1.32,0,0,1,.73-1.18q.38-.19.72-.42a1.34,1.34,0,0,1,1.39-.05l1.48.86,2.79-4.83-1.48-.86a1.31,1.31,0,0,1-.65-1.23c0-.13,0-.27,0-.41s0-.28,0-.41a1.31,1.31,0,0,1,.65-1.23Zm-5.33,2.5a4.58,4.58,0,1,1-4.57-4.57A4.58,4.58,0,0,1,349.17,354.05Z" style="fill:#ebebeb"></path><path d="M95.54,116.18,115,117.25l.32-6a4.63,4.63,0,0,1,2.79-4,25.37,25.37,0,0,0,2.6-1.32,4.63,4.63,0,0,1,4.85.11l5,3.26,10.64-16.31-5-3.26a4.63,4.63,0,0,1-2-4.39,28.37,28.37,0,0,0,.16-2.91,4.62,4.62,0,0,1,2.51-4.15l5.32-2.69-8.8-17.37L128,61a4.66,4.66,0,0,1-4.84-.45c-.38-.28-.78-.55-1.18-.82s-.81-.51-1.22-.75a4.62,4.62,0,0,1-2.35-4.22l.33-6L99.3,47.7l-.33,6a4.63,4.63,0,0,1-2.8,4,27.24,27.24,0,0,0-2.59,1.3,4.63,4.63,0,0,1-4.84-.1l-5-3.26L73.11,71.88l5,3.26a4.62,4.62,0,0,1,2,4.39,28,28,0,0,0-.15,2.9,4.62,4.62,0,0,1-2.51,4.15l-5.33,2.71L81,106.65l5.33-2.7a4.62,4.62,0,0,1,4.82.45c.39.28.78.55,1.19.82s.81.51,1.22.75a4.66,4.66,0,0,1,2.36,4.25Zm2.88-20.35a15.95,15.95,0,1,1,22.07-4.62A15.93,15.93,0,0,1,98.42,95.83Z" style="fill:#ebebeb"></path><path d="M139.3,148.15l9.16.5.15-2.8a2.17,2.17,0,0,1,1.32-1.87c.41-.19.82-.39,1.22-.62a2.18,2.18,0,0,1,2.28,0l2.35,1.53,5-7.68-2.35-1.53a2.18,2.18,0,0,1-1-2.07,12.59,12.59,0,0,0,.08-1.37,2.18,2.18,0,0,1,1.18-2l2.51-1.26-4.15-8.18-2.51,1.27a2.17,2.17,0,0,1-2.28-.21c-.18-.13-.36-.26-.55-.38l-.58-.36a2.15,2.15,0,0,1-1.1-2l.15-2.82-9.15-.5-.16,2.81a2.2,2.2,0,0,1-1.32,1.87,12.62,12.62,0,0,0-1.22.61,2.18,2.18,0,0,1-2.28,0l-2.35-1.53-5,7.67,2.35,1.54a2.17,2.17,0,0,1,1,2.07,12.39,12.39,0,0,0-.07,1.36,2.2,2.2,0,0,1-1.18,2l-2.51,1.27,4.14,8.18,2.51-1.27a2.15,2.15,0,0,1,2.27.21l.56.38c.19.13.38.25.58.36a2.18,2.18,0,0,1,1.11,2Zm1.36-9.59a7.51,7.51,0,1,1,10.4-2.18A7.5,7.5,0,0,1,140.66,138.56Z" style="fill:#dbdbdb"></path></g><g id="freepik--Floor--inject-10"><polygon points="47.15 465.48 97.86 465.24 148.57 465.15 250 464.98 351.43 465.15 402.14 465.24 452.86 465.48 402.14 465.72 351.43 465.81 250 465.98 148.57 465.81 97.86 465.72 47.15 465.48" style="fill:#263238"></polygon></g><g id="freepik--Android--inject-10"><path d="M218.56,147.76c-5.49,1.8-17.13-6.54-21.52-13.15-.3-.45,0-5.53.07-11.71,0-3.76,0-7.94-.36-11.75-.07-.78,2.72.43,2.72.43l5,.77,15.41,1.25a147.85,147.85,0,0,0,.19,16.14,9.25,9.25,0,0,0,.3,1.55c0,.07,0,.15,0,.25C221.19,134.47,223.87,146,218.56,147.76Z" style="fill:#37474f"></path><path d="M195.25,110.76a25.14,25.14,0,0,0,7.76,4.43,20.79,20.79,0,0,0,15.58-.33A17.56,17.56,0,0,0,227,106.8c6.24-11.83-1.2-38.56-8.76-43.68-11.12-7.57-29.53-2.79-32.72,11.48C183.33,84.28,188.41,105,195.25,110.76Z" style="fill:#37474f"></path><path d="M216.12,88.66c.46,6.21,4.77,11,9.64,10.59s8.43-5.69,8-11.9-4.78-11-9.64-10.59S215.65,82.44,216.12,88.66Z" style="fill:#37474f"></path><path d="M193.89,113.69c9.42,9,19.69,8.75,24.91,6.44,3.72-1.63,7.66-6.68,9.92-10.76,6.91-12.43-1.76-39.5-9.38-45.72A18.22,18.22,0,0,0,210.49,60c6.83,3.52,9.11,16.61,9.11,16.61l-15.78,2.75s-2.92-15.25-10.1-16.77c0,0-7,1.77-10.35,12.94C180.34,85.49,186.94,107.1,193.89,113.69Z" style="fill:#FFC107"></path><g style="opacity:0.1"><path d="M188.93,106.42c2.78-3.19,8.24-9.52,8.35-10.32.14-1.08-.93-11.76-1.36-12.77A158.1,158.1,0,0,0,186,69.43a27.37,27.37,0,0,0-2.63,6.07C181.1,83,184.26,97.09,188.93,106.42Z"></path><path d="M209.76,121.38a18.52,18.52,0,0,0,9-1.25,13.69,13.69,0,0,0,3.68-2.57,9.42,9.42,0,0,0-2.68-1.21,41.2,41.2,0,0,0-6.73,1.2C212.56,117.74,210.8,120,209.76,121.38Z"></path><path d="M224,76.22c.05.93,3.83,13.77,4,14.43a28.79,28.79,0,0,0,3.15,3.63,64.13,64.13,0,0,0-6.91-24.14C224.07,72.83,224,75.74,224,76.22Z"></path></g><g style="opacity:0.1"><path d="M203.82,79.33q.48,2.6.87,5.19l.82,5.2c.53,3.47,1.09,6.93,1.57,10.4.26,1.73.51,3.47.74,5.2.1.87.21,1.74.27,2.6s0,1.73,0,2.6c-.05,1.75-.18,3.49-.39,5.23a43.72,43.72,0,0,1-.91,5.17,42.39,42.39,0,0,0,1.81-10.38,23.29,23.29,0,0,0,.06-2.65c-.06-.89-.15-1.77-.25-2.64-.21-1.75-.43-3.49-.69-5.22-.54-3.47-1.08-6.94-1.72-10.39S204.71,82.73,203.82,79.33Z"></path><path d="M219.6,76.58c.67,3.28,1.18,6.59,1.71,9.9l1.55,9.92c.51,3.3,1,6.61,1.44,9.93a30.54,30.54,0,0,1,.23,5,14.86,14.86,0,0,1-.72,4.92,7.65,7.65,0,0,0,.76-2.4,20.82,20.82,0,0,0,.31-2.5,29.37,29.37,0,0,0,0-5c-.37-3.34-.84-6.66-1.35-10s-1.07-6.62-1.7-9.91S220.52,79.81,219.6,76.58Z"></path></g><path d="M224.81,81.32a58,58,0,0,1,2.43,12.48,115.89,115.89,0,0,1-27.49,4.4s-1.22-6.06-1.94-12.51A143.36,143.36,0,0,1,224.81,81.32Z" style="opacity:0.1"></path><path d="M224.13,82.33a40.88,40.88,0,0,1,2.19,10.72,109.07,109.07,0,0,1-25.86,4.14s-1.05-4.68-1.73-10.75A135.4,135.4,0,0,1,224.13,82.33Z" style="fill:#263238"></path><path d="M204.67,87.85c-3.41.54-2.1,7.31,1.06,6.82S207.52,87.41,204.67,87.85Z" style="fill:#FFC107"></path><path d="M219.84,85.15c3.33-.91,4.91,5.81,1.83,6.65S217.06,85.92,219.84,85.15Z" style="fill:#FFC107"></path><path d="M178.23,95.52c.89,6.16,5.53,10.59,10.36,9.89s8-6.26,7.12-12.42-5.53-10.6-10.35-9.9S177.34,89.35,178.23,95.52Z" style="fill:#37474f"></path><path d="M179.3,95.27c.53,3.67,3.29,6.31,6.17,5.9s4.78-3.74,4.25-7.41-3.3-6.31-6.17-5.9S178.77,91.59,179.3,95.27Z" style="fill:#455a64"></path><path d="M237.74,446c-4.14-1-55.32-10.9-56-11s-4,7.75-3.67,8.91,39.34,18.62,47.38,20.47c12.23,2.81,37.63.35,38.8-.09s1.26-7.07.53-8.4C264.39,455.21,241.88,447,237.74,446Z" style="fill:#37474f"></path><path d="M263.1,457.23s-5-15.72-13.15-22.36c-3.2-2.6-21-9.51-21-9.51l-30.86-12.48s-10.09,9.46-11.35,12.38-4.14,13.46-4.14,13.46,34.74,17.95,46.05,19.65C248.57,461.37,263.1,457.23,263.1,457.23Z" style="fill:#FFC107"></path><path d="M232.07,326.89s6.72-2.13,12-.87a104.07,104.07,0,0,0,11.78,1.89s-2.5,23.77-4.19,25.34-18.31,1.44-19.36-.78S232.07,326.89,232.07,326.89Z" style="fill:#37474f"></path><path d="M259,352.8c.07,4.27-28.79,68.19-32.16,70.19s-24.49-5.79-27.15-11.45,7.9-42.93,9.87-49,20.14-22,21.63-20.9C244,351.18,258.91,349.06,259,352.8Z" style="fill:#FFC107"></path><g style="opacity:0.2"><path d="M231.39,351.07a.89.89,0,0,1,1,.86.89.89,0,1,1-1-.86Zm0,1.56a.68.68,0,0,0,.54-.69.67.67,0,0,0-.58-.65.68.68,0,1,0,0,1.34Z"></path><path d="M226.05,356.08a.89.89,0,0,1,1,.86.9.9,0,0,1-1,.92.9.9,0,0,1,0-1.78Zm0,1.56a.68.68,0,1,0-.8-.65A.68.68,0,0,0,226.09,357.64Z"></path><path d="M220.94,361a.9.9,0,1,1,.05,1.78.92.92,0,0,1-.81-.87A.91.91,0,0,1,220.94,361Zm0,1.56a.68.68,0,1,0-.8-.65A.69.69,0,0,0,221,362.56Z"></path><path d="M216.81,366.18a.9.9,0,1,1,0,1.78.88.88,0,0,1-.8-.87A.9.9,0,0,1,216.81,366.18Zm0,1.56a.68.68,0,0,0,0-1.34.68.68,0,1,0,0,1.34Z"></path><path d="M214.18,373.31a.89.89,0,0,1,1,.86.89.89,0,1,1-1-.86Zm0,1.56a.68.68,0,0,0,0-1.34.68.68,0,1,0,0,1.34Z"></path><path d="M210.15,388.49a.9.9,0,1,1-.75.91A.89.89,0,0,1,210.15,388.49Zm0,1.56a.68.68,0,0,0,0-1.34.68.68,0,1,0,0,1.34Z"></path><path d="M205.75,404.23a.91.91,0,0,1,1,.87.89.89,0,1,1-1.78,0A.89.89,0,0,1,205.75,404.23Zm0,1.56a.68.68,0,0,0,0-1.34.68.68,0,1,0,0,1.34Z"></path><path d="M212.15,380.77a.91.91,0,0,1,1,.87.9.9,0,0,1-1,.91.9.9,0,0,1,0-1.78Zm0,1.56a.67.67,0,0,0,.55-.68.69.69,0,0,0-.58-.66.67.67,0,0,0-.76.69A.67.67,0,0,0,212.19,382.33Z"></path><path d="M208.26,396.26a.89.89,0,0,1,1,.86.89.89,0,1,1-1.78.05A.88.88,0,0,1,208.26,396.26Zm0,1.56a.68.68,0,0,0,.54-.69.67.67,0,0,0-.58-.65.68.68,0,1,0,0,1.34Z"></path><path d="M231.29,347.19c-4.18,3.83-8.3,7.72-12.24,11.8-1,1-2,2.05-2.89,3.14-.47.53-.92,1.08-1.35,1.66-.22.28-.41.6-.62.91s-.31.64-.48,1a63.55,63.55,0,0,0-2.8,8.06c-1.55,5.46-2.88,11-4.17,16.48l-1.92,8.28c-.62,2.76-1.25,5.52-1.94,8.27.8-2.72,1.53-5.46,2.26-8.2l2.09-8.23c1.4-5.49,2.72-11,4.32-16.42a62.57,62.57,0,0,1,2.71-8c.15-.31.29-.63.45-.93s.35-.58.57-.86c.42-.55.86-1.1,1.32-1.63.91-1.07,1.86-2.12,2.82-3.16,1.92-2.08,3.89-4.1,5.88-6.12S229.27,349.18,231.29,347.19Z"></path></g><path d="M227.63,421.71c3.58-.09,1.37,5.19-5.63,5.12-10.62-.1-25.16-9.7-25.82-13.29s2.13-6.36,2.49-5.12S214.82,422.06,227.63,421.71Z" style="fill:#37474f"></path><path d="M244.46,259.66s-7.78,5.77-13.24,5.94-15.47.56-15.47.56-.48-18,.74-20,17.55-11,19.15-9.17S244.46,259.66,244.46,259.66Z" style="fill:#37474f"></path><path d="M247.51,256.61c5.1,6.55,12.69,68.51,10.76,74.06s-25.56,12.8-31.71,8.24-17.77-70.85-14.47-76.41c1.82-3.08,7.36,1.82,18.28-1.09C245,257.53,243.13,251,247.51,256.61Z" style="fill:#FFC107"></path><g style="opacity:0.2"><path d="M224.75,266.5a.9.9,0,1,1,.92,1.53.91.91,0,0,1-1.13-.37A.9.9,0,0,1,224.75,266.5Zm.81,1.34a.67.67,0,0,0,.13-.86.66.66,0,0,0-.82-.29.67.67,0,0,0-.33,1A.68.68,0,0,0,225.56,267.84Z"></path><path d="M224.88,274.79a.9.9,0,0,1,1.31.26.89.89,0,0,1-.4,1.27.9.9,0,0,1-.91-1.53Zm.8,1.35a.68.68,0,1,0-1-.18A.68.68,0,0,0,225.68,276.14Z"></path><path d="M225,283.23a.9.9,0,1,1-.22,1.17A.89.89,0,0,1,225,283.23Zm.8,1.34a.68.68,0,1,0-1-.17A.69.69,0,0,0,225.83,284.57Z"></path><path d="M226,291.74a.9.9,0,0,1,1.32.25.91.91,0,0,1-.41,1.28.9.9,0,0,1-1.12-.37A.88.88,0,0,1,226,291.74Zm.8,1.34a.68.68,0,0,0-.69-1.15.68.68,0,1,0,.69,1.15Z"></path><path d="M226.72,299.93a.9.9,0,1,1-.21,1.16A.88.88,0,0,1,226.72,299.93Zm.8,1.34a.68.68,0,1,0-1-.18A.67.67,0,0,0,227.52,301.27Z"></path><path d="M227.68,307.39a.9.9,0,1,1,.91,1.53.9.9,0,0,1-.91-1.53Zm.8,1.34a.67.67,0,0,0,.14-.86.67.67,0,1,0-.14.86Z"></path><path d="M229,314.88a.9.9,0,1,1-.21,1.17A.91.91,0,0,1,229,314.88Zm.8,1.35a.68.68,0,0,0,.14-.87.67.67,0,1,0-1.15.69A.67.67,0,0,0,229.79,316.23Z"></path><path d="M230.25,322.17a.9.9,0,1,1-.21,1.17A.91.91,0,0,1,230.25,322.17Zm.8,1.35a.68.68,0,0,0-.68-1.16.68.68,0,1,0,.68,1.16Z"></path><path d="M231.41,328.92a.9.9,0,1,1-.22,1.16A.89.89,0,0,1,231.41,328.92Zm.8,1.34a.69.69,0,0,0,.14-.86.67.67,0,1,0-.14.86Z"></path><path d="M233.07,335.84a.91.91,0,0,1,1.32.26.89.89,0,1,1-1.53.91A.91.91,0,0,1,233.07,335.84Zm.81,1.35a.68.68,0,1,0-1-.18A.68.68,0,0,0,233.88,337.19Z"></path><path d="M222,262.88a152.19,152.19,0,0,0,.26,19.22c.42,6.4,1.11,12.78,1.94,19.14.47,3.17.94,6.34,1.5,9.5s1.14,6.31,1.74,9.45,1.32,6.28,2,9.41l2.28,9.34-2.07-9.38c-.62-3.14-1.33-6.27-1.9-9.42s-1.18-6.3-1.67-9.46-1-6.33-1.42-9.5c-.88-6.35-1.62-12.71-2.09-19.1-.23-3.19-.42-6.39-.51-9.59S221.83,266.08,222,262.88Z"></path></g><path d="M228.05,261.92l-11.57,42.9c-3.65-19-6.16-39.34-4.39-42.32S218.66,263.64,228.05,261.92Z" style="opacity:0.1"></path><path d="M177.82,329.16s6.72-2.14,12-.88,15.08,3.53,15.08,3.53-5.81,22.13-7.5,23.71-18.3,1.43-19.36-.79S177.82,329.16,177.82,329.16Z" style="fill:#37474f"></path><path d="M171.23,346.13c-.84,1.76-4.39,15.33-4.51,30.57-.15,19.39,3.38,41.3,4.67,43.16,2.3,3.34,25.52,5.09,30.45.91s6.72-35.89,7-43.62c.24-6.58-3.25-29.88-5.13-29.48C187.54,351.12,172.9,342.64,171.23,346.13Z" style="fill:#FFC107"></path><g style="opacity:0.2"><path d="M200.42,351.63a.87.87,0,1,1-1.58-.74.89.89,0,0,1,1.26-.38A.88.88,0,0,1,200.42,351.63Zm0,0a.66.66,0,1,0-1.19-.56.66.66,0,1,0,1.19.56Z"></path><path d="M201.13,359.75a.88.88,0,1,1-1.59-.74.88.88,0,1,1,1.59.74Zm0,0a.66.66,0,1,0-1.2-.56.66.66,0,1,0,1.2.56Z"></path><path d="M201.82,368a.88.88,0,1,1-.33-1.12A.89.89,0,0,1,201.82,368Zm0,0a.66.66,0,1,0-1.2-.56.66.66,0,1,0,1.2.56Z"></path><path d="M201.68,376.41a.87.87,0,1,1-.32-1.12A.89.89,0,0,1,201.68,376.41Zm0,0a.67.67,0,0,0-.42-.92.66.66,0,0,0-.77.36.66.66,0,1,0,1.19.56Z"></path><path d="M201.82,384.48a.88.88,0,1,1-.33-1.12A.89.89,0,0,1,201.82,384.48Zm0,0a.67.67,0,0,0-.42-.92.66.66,0,1,0,.42.92Z"></path><path d="M201.62,391.86a.87.87,0,1,1-.32-1.11A.88.88,0,0,1,201.62,391.86Zm0,0a.66.66,0,1,0-1,.28A.67.67,0,0,0,201.62,391.86Z"></path><path d="M201.08,399.31a.87.87,0,1,1-.32-1.11A.88.88,0,0,1,201.08,399.31Zm0,0a.66.66,0,1,0-1,.28A.67.67,0,0,0,201.08,399.31Z"></path><path d="M200.57,406.56a.87.87,0,1,1-.32-1.12A.89.89,0,0,1,200.57,406.56Zm0,0a.66.66,0,0,0-.41-.92.67.67,0,0,0-.56,1.19A.66.66,0,0,0,200.57,406.56Z"></path><path d="M200.12,413.26a.88.88,0,1,1-.33-1.12A.89.89,0,0,1,200.12,413.26Zm0,0a.66.66,0,1,0-1,.27A.67.67,0,0,0,200.12,413.26Z"></path><path d="M199.17,420.19a.87.87,0,1,1-.32-1.12A.88.88,0,0,1,199.17,420.19Zm0,0a.66.66,0,0,0-.41-.92.67.67,0,0,0-.56,1.19A.66.66,0,0,0,199.17,420.19Z"></path><path d="M202.59,348.71A143.49,143.49,0,0,1,204.21,367c.21,6.13.16,12.26,0,18.38-.15,3.06-.29,6.12-.54,9.18s-.49,6.11-.77,9.16-.68,6.09-1,9.14l-1.31,9.1,1.1-9.13c.31-3,.69-6.08.94-9.14s.54-6.1.7-9.15.34-6.11.47-9.17c.24-6.12.33-12.24.17-18.36-.09-3.06-.21-6.11-.44-9.17S203,351.74,202.59,348.71Z"></path></g><path d="M209.4,450.06l-6.87-24.75-30.71-.46S160,454.08,160,454,209.4,450.06,209.4,450.06Z" style="fill:#FFC107"></path><path d="M209.4,450.06l-6.87-24.75-30.71-.46S160,454.08,160,454,209.4,450.06,209.4,450.06Z" style="opacity:0.1"></path><path d="M219.29,462.2s-27.44,1.16-32,1.2-35.65,7.29-35.65,7.29-.56,7.45-.3,8.13,30,7,42.1,4.93,29.57-11.82,29.49-12.34S219.29,462.2,219.29,462.2Z" style="fill:#37474f"></path><path d="M219.24,466.69s-15.68,8.57-24.8,9.88-41.21-3.81-41.21-3.81,3.69-17.91,12.34-26.53,27.49-9.15,35.2-5.18S219.24,466.69,219.24,466.69Z" style="fill:#FFC107"></path><path d="M211.47,264.63s-9.07,3.38-14.36,2-15-3.77-15-3.77,4.56-17.46,6.27-19,20.4-.59,21.42,1.65S211.47,264.63,211.47,264.63Z" style="fill:#37474f"></path><path d="M181,259.38c-4.47,6.81-8.42,68.75-6.11,74s26,10.59,31.67,5.65,10.43-75.22,5-78.52c-2.47-1.5-3.23,2.78-16,2.91C190.85,263.5,183,256.41,181,259.38Z" style="fill:#FFC107"></path><g style="opacity:0.2"><path d="M206.2,268.2a.88.88,0,1,1-.3-1.13A.89.89,0,0,1,206.2,268.2Zm0,0a.66.66,0,0,0-.4-.93.65.65,0,0,0-.78.34.66.66,0,0,0,.2.84A.68.68,0,0,0,206.2,268.2Z"></path><path d="M206.71,276.33a.88.88,0,1,1-.3-1.13A.89.89,0,0,1,206.71,276.33Zm0,0a.66.66,0,1,0-1.18-.59.66.66,0,1,0,1.18.59Z"></path><path d="M207.2,284.59a.87.87,0,0,1-1.07.45.88.88,0,1,1,.78-1.57A.87.87,0,0,1,207.2,284.59Zm0,0a.66.66,0,0,0-.39-.93.68.68,0,0,0-.79.35.67.67,0,0,0,.2.83A.66.66,0,0,0,207.2,284.59Z"></path><path d="M206.87,293a.88.88,0,1,1-.3-1.13A.89.89,0,0,1,206.87,293Zm0,0a.66.66,0,1,0-1.18-.59.66.66,0,1,0,1.18.59Z"></path><path d="M206.82,301.07a.88.88,0,1,1-.3-1.13A.89.89,0,0,1,206.82,301.07Zm0,0a.66.66,0,0,0-.4-.93.67.67,0,0,0-.58,1.18A.68.68,0,0,0,206.82,301.07Z"></path><path d="M206.45,308.44a.87.87,0,1,1-1.57-.77.87.87,0,1,1,1.57.77Zm0,0a.66.66,0,1,0-1.18-.58.65.65,0,0,0,.2.83A.66.66,0,0,0,206.45,308.44Z"></path><path d="M205.73,315.88a.88.88,0,1,1-1.57-.78.88.88,0,1,1,1.57.78Zm0,0a.67.67,0,0,0-.4-.93.65.65,0,0,0-.78.34.66.66,0,1,0,1.18.59Z"></path><path d="M205.05,323.11a.88.88,0,1,1-1.57-.78.88.88,0,1,1,1.57.78Zm0,0a.67.67,0,0,0-.39-.93.66.66,0,0,0-.79.34.66.66,0,1,0,1.18.59Z"></path><path d="M204.43,329.8a.87.87,0,1,1-1.56-.78.87.87,0,1,1,1.56.78Zm0,0a.66.66,0,0,0-.39-.93.67.67,0,0,0-.79.34.68.68,0,0,0,.2.84A.67.67,0,0,0,204.43,329.8Z"></path><path d="M203.33,336.71a.88.88,0,1,1-.3-1.13A.89.89,0,0,1,203.33,336.71Zm0,0a.66.66,0,0,0-.4-.93.65.65,0,0,0-.78.34.66.66,0,0,0,.2.84A.68.68,0,0,0,203.33,336.71Z"></path><path d="M208.36,263.32a152,152,0,0,1,1.21,18.83c.07,6.3-.12,12.59-.45,18.88-.22,3.14-.43,6.28-.74,9.41s-.64,6.26-1,9.39-.82,6.24-1.22,9.36l-1.52,9.32,1.31-9.35c.38-3.12.83-6.23,1.15-9.36s.67-6.25.91-9.39.47-6.27.67-9.41c.38-6.27.61-12.56.59-18.85,0-3.14-.07-6.28-.23-9.42S208.74,266.44,208.36,263.32Z"></path></g><circle cx="196.37" cy="244.46" r="7.9" transform="translate(-108.47 317.91) rotate(-64.77)" style="fill:#263238"></circle><path d="M171.4,419.13c-3.14-1.61-3.42,4,2.81,6.91,9.44,4.41,26.39,2.07,28.5-.83s.81-6.53,0-5.59S182.6,424.86,171.4,419.13Z" style="fill:#37474f"></path><path d="M310.89,122.59s7.86,1.08,10.83,4.17,8.44,8.72,8.44,8.72-11.65,11.14-13.58,11.61-12.53-4.65-12.56-9.37C304,135.62,310.89,122.59,310.89,122.59Z" style="fill:#37474f"></path><path d="M328,139.63c-4.32,1.75-19.63-8-20.85-12.81-.4-1.61,7.57-25.22,11.77-25.75s26.84,15.19,24.93,20S330.27,138.72,328,139.63Z" style="fill:#FFC107"></path><path d="M343.42,121.1c-1.35,1.1-4.61,0-6.59-2.2-2.8-3.13-3-5.59-2.11-6.83.62-.86,3.93-1.31,7.2,2.33C344.56,117.34,344.49,120.22,343.42,121.1Z" style="fill:#37474f"></path><path d="M335.79,111.8c2.4-2.45,10.07-8.56,11.5-8.41,4.13.44,5.62,5,4.68,6.7-.55,1-6.73,10-9.33,9.84C338.69,119.75,334.3,113.32,335.79,111.8Z" style="fill:#FFC107"></path><path d="M335.79,111.8a55.92,55.92,0,0,1,4.63-4.07,49.47,49.47,0,0,1,5-3.61,7.45,7.45,0,0,1,1.38-.7,1.34,1.34,0,0,1,.79-.06,5.19,5.19,0,0,1,.76.17,5.51,5.51,0,0,1,2.58,1.68,6.25,6.25,0,0,1,1.34,2.79,3.82,3.82,0,0,1,0,1.58,4.16,4.16,0,0,1-.71,1.39,61.67,61.67,0,0,1-3.74,4.91,30,30,0,0,1-2.11,2.26,7.82,7.82,0,0,1-2.52,1.77,2.81,2.81,0,0,1-1.55-.1,6.18,6.18,0,0,1-1.42-.62,10.67,10.67,0,0,1-2.37-2,11.29,11.29,0,0,1-1.76-2.52,5.8,5.8,0,0,1-.53-1.44A1.64,1.64,0,0,1,335.79,111.8Zm0,0a1.63,1.63,0,0,0-.22,1.46,5.79,5.79,0,0,0,.55,1.43,11.2,11.2,0,0,0,1.78,2.49,10.23,10.23,0,0,0,2.37,1.93,6.42,6.42,0,0,0,1.4.6,2.77,2.77,0,0,0,1.48.08A7.71,7.71,0,0,0,345.6,118a29.61,29.61,0,0,0,2.08-2.26c1.3-1.58,2.53-3.23,3.67-4.92a4.17,4.17,0,0,0,.7-1.31,3.74,3.74,0,0,0,0-1.49,6,6,0,0,0-1.27-2.7,5.28,5.28,0,0,0-2.49-1.66,3.78,3.78,0,0,0-.74-.17,1.18,1.18,0,0,0-.72,0,7.51,7.51,0,0,0-1.36.68,49.86,49.86,0,0,0-5,3.55A59.57,59.57,0,0,0,335.79,111.8Z" style="fill:#263238"></path><path d="M352.3,110.15c-1.44.71-3.6-.75-4.92-2.58-1.72-2.4-1.14-4.52.15-5.08.83-.36,3.25.12,4.57,2.81C353.06,107.26,353.45,109.59,352.3,110.15Z" style="fill:#37474f"></path><path d="M346.73,105.24c-1,3-2.69,11.66-1.4,15.36.86,2.46,2.81,2.11,3.91.56s6-13.43,5.09-16S347.54,102.76,346.73,105.24Z" style="fill:#FFC107"></path><path d="M346.73,105.24a42.62,42.62,0,0,0-1.26,5.7,37.67,37.67,0,0,0-.53,5.8,13.92,13.92,0,0,0,.23,2.89,3.57,3.57,0,0,0,1.31,2.44,2,2,0,0,0,2.46-.7,12.82,12.82,0,0,0,1.35-2.54c.81-1.77,1.54-3.57,2.21-5.4a41.62,41.62,0,0,0,1.67-5.58,11.46,11.46,0,0,0,.21-1.43,2.75,2.75,0,0,0-.19-1.4,3.32,3.32,0,0,0-2.34-1.52,6.23,6.23,0,0,0-2.88.06A3,3,0,0,0,346.73,105.24Zm0,0a3,3,0,0,1,2.23-1.71,6.31,6.31,0,0,1,2.9-.09,3.36,3.36,0,0,1,2.41,1.54,2.84,2.84,0,0,1,.22,1.44,10.25,10.25,0,0,1-.2,1.46,41.94,41.94,0,0,1-1.61,5.62q-1,2.76-2.16,5.44a13,13,0,0,1-1.42,2.58,2.87,2.87,0,0,1-1.23.85,1.72,1.72,0,0,1-1.48-.14,3.7,3.7,0,0,1-1.37-2.57,15.05,15.05,0,0,1-.21-2.92,39.06,39.06,0,0,1,.6-5.81A42.67,42.67,0,0,1,346.73,105.24Z" style="fill:#263238"></path><path d="M341.45,114.38c-1.19,1.27-4.56.64-6.83-1.31-3.18-2.73-3.7-5.15-3-6.49.5-.93,3.73-1.81,7.45,1.36C342.08,110.51,342.39,113.37,341.45,114.38Z" style="fill:#37474f"></path><path d="M332.66,106.17c2-2.75,8.85-9.81,10.29-9.85,4.15-.12,6.23,4.21,5.52,6-.41,1.07-5.36,10.76-8,11C336.58,113.67,331.38,107.88,332.66,106.17Z" style="fill:#FFC107"></path><path d="M332.66,106.17a57.73,57.73,0,0,1,4-4.64,49.77,49.77,0,0,1,4.47-4.24,6.75,6.75,0,0,1,1.28-.88,1.3,1.3,0,0,1,.77-.16,4.11,4.11,0,0,1,.78.07,5.47,5.47,0,0,1,2.78,1.33,6.23,6.23,0,0,1,1.7,2.58,4.13,4.13,0,0,1,.22,1.56,4.29,4.29,0,0,1-.53,1.48,60.26,60.26,0,0,1-3.06,5.36,29.32,29.32,0,0,1-1.79,2.51,7.69,7.69,0,0,1-2.27,2.09,2.82,2.82,0,0,1-1.55.11,6.29,6.29,0,0,1-1.48-.43,10.43,10.43,0,0,1-2.61-1.64,11.45,11.45,0,0,1-2.08-2.26,6.12,6.12,0,0,1-.72-1.36A1.64,1.64,0,0,1,332.66,106.17Zm0,0a1.62,1.62,0,0,0,0,1.47,5.84,5.84,0,0,0,.72,1.35,11.39,11.39,0,0,0,2.1,2.23,10.13,10.13,0,0,0,2.6,1.6,6.44,6.44,0,0,0,1.47.41,2.74,2.74,0,0,0,1.48-.11,7.77,7.77,0,0,0,2.2-2.08c.63-.8,1.2-1.65,1.75-2.51a58.7,58.7,0,0,0,3-5.37,3.81,3.81,0,0,0,.52-1.39,3.71,3.71,0,0,0-.19-1.47,6,6,0,0,0-1.62-2.52A5.29,5.29,0,0,0,344,96.47a3.81,3.81,0,0,0-.75-.07,1.09,1.09,0,0,0-.71.14,7.47,7.47,0,0,0-1.26.84,51,51,0,0,0-4.5,4.19A57.56,57.56,0,0,0,332.66,106.17Z" style="fill:#263238"></path><path d="M348.81,102.36c-1.34.89-3.67-.28-5.22-1.92-2-2.14-1.72-4.32-.52-5,.78-.47,3.23-.3,4.9,2.19C349.18,99.39,349.87,101.64,348.81,102.36Z" style="fill:#37474f"></path><path d="M342.74,99.86c1.23,2.94,5.55,10.6,8.94,12.57,2.25,1.31,3.5-.23,3.33-2.12s-4.16-14.12-6.53-15.43S341.74,97.45,342.74,99.86Z" style="fill:#FFC107"></path><path d="M342.74,99.86a44.66,44.66,0,0,0,2.75,5.15,39.35,39.35,0,0,0,3.38,4.75,14.64,14.64,0,0,0,2.05,2,3.65,3.65,0,0,0,2.59,1,2,2,0,0,0,1.41-2.13,13.36,13.36,0,0,0-.62-2.81c-.55-1.87-1.16-3.71-1.85-5.53A40.91,40.91,0,0,0,350.09,97a11,11,0,0,0-.78-1.22,2.63,2.63,0,0,0-1.05-.94,3.26,3.26,0,0,0-2.76.37,6.33,6.33,0,0,0-2.16,1.92A3,3,0,0,0,342.74,99.86Zm0,0a3,3,0,0,1,.58-2.75,6.42,6.42,0,0,1,2.15-2,3.39,3.39,0,0,1,2.82-.4,2.78,2.78,0,0,1,1.11,1,10.78,10.78,0,0,1,.8,1.23,41.18,41.18,0,0,1,2.43,5.32c.7,1.82,1.34,3.66,1.9,5.53a12.62,12.62,0,0,1,.61,2.88,3,3,0,0,1-.38,1.45,1.73,1.73,0,0,1-1.22.86,3.74,3.74,0,0,1-2.71-1.06,15,15,0,0,1-2.06-2.08,39.5,39.5,0,0,1-3.33-4.8A43.19,43.19,0,0,1,342.74,99.86Z" style="fill:#263238"></path><path d="M336.76,107c-.81,1.54-4.22,1.83-6.92.55-3.79-1.79-4.94-4-4.61-5.47.24-1,3.11-2.74,7.54-.66C336.35,103.09,337.41,105.76,336.76,107Z" style="fill:#37474f"></path><path d="M326.12,101.4c1.25-3.19,5.92-11.81,7.3-12.23,4-1.21,7.13,2.42,6.93,4.35-.12,1.14-2.32,11.79-4.76,12.7C331.88,107.59,325.34,103.39,326.12,101.4Z" style="fill:#FFC107"></path><path d="M326.12,101.4a54.4,54.4,0,0,1,2.67-5.55A52.27,52.27,0,0,1,332,90.58a8.08,8.08,0,0,1,1-1.19,1.29,1.29,0,0,1,.71-.35,3.91,3.91,0,0,1,.76-.14,5.42,5.42,0,0,1,3,.54,6.25,6.25,0,0,1,2.32,2,3.76,3.76,0,0,1,.62,1.45,4.27,4.27,0,0,1-.11,1.56,61.65,61.65,0,0,1-1.53,6,30.51,30.51,0,0,1-1.06,2.9,7.81,7.81,0,0,1-1.63,2.61,2.81,2.81,0,0,1-1.47.52,6.61,6.61,0,0,1-1.54,0,10.38,10.38,0,0,1-2.95-.89,11.77,11.77,0,0,1-2.61-1.63,5.87,5.87,0,0,1-1-1.12A1.62,1.62,0,0,1,326.12,101.4Zm0,0a1.64,1.64,0,0,0,.36,1.43,5.82,5.82,0,0,0,1.06,1.1,11.15,11.15,0,0,0,2.62,1.6,10.05,10.05,0,0,0,2.93.85,6,6,0,0,0,1.52,0,2.72,2.72,0,0,0,1.4-.5,7.69,7.69,0,0,0,1.57-2.59,29.11,29.11,0,0,0,1-2.89c.59-2,1.07-4,1.46-6a3.79,3.79,0,0,0,.13-1.48,3.73,3.73,0,0,0-.57-1.37,6.13,6.13,0,0,0-2.23-2,5.31,5.31,0,0,0-2.93-.55,3.8,3.8,0,0,0-.75.13,1.09,1.09,0,0,0-.64.32,7.86,7.86,0,0,0-1,1.15,52.86,52.86,0,0,0-3.23,5.23A56.49,56.49,0,0,0,326.12,101.4Z" style="fill:#263238"></path><path d="M340.67,93.44c-1.05,1.22-3.61.71-5.53-.46-2.52-1.53-2.81-3.71-1.85-4.73.63-.66,3-1.15,5.31.81C340.25,90.48,341.51,92.48,340.67,93.44Z" style="fill:#37474f"></path><path d="M334.16,92.64c2,2.52,8.17,8.75,11.95,9.75,2.52.67,3.32-1.14,2.66-2.92S341,87,338.38,86.32,332.56,90.58,334.16,92.64Z" style="fill:#FFC107"></path><path d="M334.16,92.64a43.53,43.53,0,0,0,4,4.24,38.73,38.73,0,0,0,4.51,3.68,14.68,14.68,0,0,0,2.53,1.43,3.59,3.59,0,0,0,2.75.27,2,2,0,0,0,.8-2.42,12.26,12.26,0,0,0-1.35-2.55c-1-1.65-2.1-3.27-3.24-4.84a42.16,42.16,0,0,0-3.69-4.51,12.43,12.43,0,0,0-1.07-1,2.8,2.8,0,0,0-1.27-.62,3.29,3.29,0,0,0-2.57,1.09A6.35,6.35,0,0,0,334,89.85,3,3,0,0,0,334.16,92.64Zm0,0a3,3,0,0,1-.17-2.8,6.32,6.32,0,0,1,1.55-2.45,3.34,3.34,0,0,1,2.62-1.14,2.66,2.66,0,0,1,1.32.63,11.22,11.22,0,0,1,1.1,1,43.4,43.4,0,0,1,3.75,4.48c1.16,1.57,2.27,3.18,3.3,4.83A13,13,0,0,1,349,99.78a3,3,0,0,1,0,1.5,1.72,1.72,0,0,1-.95,1.15,3.73,3.73,0,0,1-2.89-.3,14.54,14.54,0,0,1-2.54-1.46,37.39,37.39,0,0,1-4.48-3.75A42.37,42.37,0,0,1,334.16,92.64Z" style="fill:#263238"></path><path d="M329.76,105c-.38,1.76-3.7,3-6.74,2.47-4.27-.73-6-2.59-6.1-4.16-.05-1.09,2.33-3.59,7.32-2.75C328.26,101.22,330.06,103.59,329.76,105Z" style="fill:#37474f"></path><path d="M317.61,102.38c.36-3.52,2.62-13.39,3.87-14.19,3.62-2.31,7.76.42,8.1,2.4.2,1.16,1,12.38-1.2,14C325.07,107,317.39,104.58,317.61,102.38Z" style="fill:#FFC107"></path><path d="M317.61,102.38a60.33,60.33,0,0,1,1.12-6.26,52.55,52.55,0,0,1,1.7-6.13,8,8,0,0,1,.67-1.46,1.39,1.39,0,0,1,.6-.55,3.69,3.69,0,0,1,.72-.35,5.54,5.54,0,0,1,3.17-.3,6.38,6.38,0,0,1,2.88,1.38,4.06,4.06,0,0,1,1,1.27,4.26,4.26,0,0,1,.32,1.59,61.5,61.5,0,0,1,.14,6.37,31,31,0,0,1-.25,3.18,8,8,0,0,1-.89,3,2.84,2.84,0,0,1-1.32.92,5.84,5.84,0,0,1-1.54.41,10.93,10.93,0,0,1-3.18-.06,12,12,0,0,1-3-.9,6.08,6.08,0,0,1-1.36-.82A1.72,1.72,0,0,1,317.61,102.38Zm0,0a1.71,1.71,0,0,0,.76,1.33,6,6,0,0,0,1.36.8,12,12,0,0,0,3,.87,10.79,10.79,0,0,0,3.16,0,6,6,0,0,0,1.51-.42,2.77,2.77,0,0,0,1.25-.89,7.74,7.74,0,0,0,.85-3,30.12,30.12,0,0,0,.21-3.16,61,61,0,0,0-.2-6.34,4.1,4.1,0,0,0-.28-1.51,3.8,3.8,0,0,0-.95-1.2,6.17,6.17,0,0,0-2.78-1.37,5.45,5.45,0,0,0-3.07.26,4.63,4.63,0,0,0-.71.34,1.21,1.21,0,0,0-.55.5,7.37,7.37,0,0,0-.67,1.42,52,52,0,0,0-1.76,6.11A60.16,60.16,0,0,0,317.61,102.38Z" style="fill:#263238"></path><path d="M329.88,90.42c-.7,1.51-3.39,1.71-5.63,1.08-2.94-.82-3.83-2.91-3.15-4.19.44-.83,2.7-2,5.5-.68C328.64,87.59,330.45,89.23,329.88,90.42Z" style="fill:#37474f"></path><path d="M329.44,89.41c1.47-3,4.53-11.5,3.78-15.48-.5-2.64-2.54-2.58-3.91-1.17s-8.22,12.79-7.65,15.53S328.23,91.82,329.44,89.41Z" style="fill:#FFC107"></path><path d="M329.44,89.41a45.07,45.07,0,0,0,2.16-5.63A39,39,0,0,0,333,77.93a15,15,0,0,0,.2-3,3.68,3.68,0,0,0-1-2.69,1.59,1.59,0,0,0-1.33-.32,2.93,2.93,0,0,0-1.29.65A13.21,13.21,0,0,0,327.88,75c-1.1,1.69-2.12,3.42-3.08,5.18a42.89,42.89,0,0,0-2.56,5.45A10.27,10.27,0,0,0,321.8,87a2.78,2.78,0,0,0,0,1.46,3.39,3.39,0,0,0,2.15,1.91,6.63,6.63,0,0,0,3,.39,4.57,4.57,0,0,0,1.45-.38A2.51,2.51,0,0,0,329.44,89.41Zm0,0a2.62,2.62,0,0,1-1.09,1,4.59,4.59,0,0,1-1.45.39,6.72,6.72,0,0,1-3-.36,3.44,3.44,0,0,1-2.22-1.94,2.87,2.87,0,0,1,0-1.51,10.45,10.45,0,0,1,.42-1.45,43.35,43.35,0,0,1,2.51-5.5q1.42-2.67,3-5.22a13.33,13.33,0,0,1,1.84-2.42,3.14,3.14,0,0,1,1.39-.69,1.75,1.75,0,0,1,1.49.38,3.88,3.88,0,0,1,1,2.83,15.16,15.16,0,0,1-.24,3,39.22,39.22,0,0,1-1.5,5.85A45.11,45.11,0,0,1,329.44,89.41Z" style="fill:#263238"></path><path d="M330.57,124.8c-1.64.6-4.36-1.47-5.52-4.23-1.61-3.87-1-6.27.25-7.14.86-.61,4.14,0,6,4.55C332.87,121.63,331.86,124.32,330.57,124.8Z" style="fill:#37474f"></path><path d="M332.05,123.08c2-2.8,6.92-10.43,6.55-13s-2-4.55-3.42-4.47-9.36,6.48-9.9,8.92S330.36,125.42,332.05,123.08Z" style="fill:#FFC107"></path><path d="M332.05,123.08c1.13-1.58,2.17-3.22,3.16-4.89a39.31,39.31,0,0,0,2.64-5.17,7.65,7.65,0,0,0,.67-2.78,6.71,6.71,0,0,0-.88-2.71,3.6,3.6,0,0,0-2.07-1.81,1.78,1.78,0,0,0-1.29.36c-.42.24-.82.51-1.21.78a42.93,42.93,0,0,0-4.52,3.65,23.2,23.2,0,0,0-2,2.08,7.43,7.43,0,0,0-.85,1.17,2,2,0,0,0-.38,1.33,8.41,8.41,0,0,0,.9,2.74,19,19,0,0,0,1.47,2.5,13.24,13.24,0,0,0,1.88,2.21,4.43,4.43,0,0,0,1.19.82,1.45,1.45,0,0,0,.71.11A1,1,0,0,0,332.05,123.08Zm0,0a1,1,0,0,1-.59.39,1.38,1.38,0,0,1-.72-.1,4.45,4.45,0,0,1-1.2-.81,13.35,13.35,0,0,1-1.91-2.2,18.48,18.48,0,0,1-1.5-2.49,8.41,8.41,0,0,1-.94-2.77,2.19,2.19,0,0,1,.37-1.41,8.46,8.46,0,0,1,.86-1.2,25,25,0,0,1,2-2.12,43.25,43.25,0,0,1,4.5-3.71c.41-.27.82-.54,1.25-.78a6,6,0,0,1,.67-.33,1.35,1.35,0,0,1,.77,0,3.78,3.78,0,0,1,2.19,1.92,7,7,0,0,1,.88,2.8,7.67,7.67,0,0,1-.71,2.83,39.59,39.59,0,0,1-2.71,5.16C334.26,119.88,333.19,121.51,332.05,123.08Z" style="fill:#263238"></path><path d="M338.68,110.88c-.65,1.21-3.2.69-4.67-.7s-2-3.39-1-4.2a3.39,3.39,0,0,1,4.54,1C338.8,108.55,339.24,109.84,338.68,110.88Z" style="fill:#37474f"></path><path d="M338.32,110.27c1.24-.77,1.76-8.52,1.15-10.44S336.94,96.9,336,98s-2.88,7.93-2.72,9C333.46,108.27,336.57,111.35,338.32,110.27Z" style="fill:#FFC107"></path><path d="M338.32,110.27a3.57,3.57,0,0,0,.79-1.77,18.18,18.18,0,0,0,.3-1.94,30.37,30.37,0,0,0,.13-3.93c-.08-1.29-.08-2.65-.83-3.62a2.72,2.72,0,0,0-1.35-1,1,1,0,0,0-1.26.48,22.72,22.72,0,0,0-1.43,3.57,38.37,38.37,0,0,0-1.09,3.76,7.73,7.73,0,0,0-.17.94,1.48,1.48,0,0,0,.23.87,6.25,6.25,0,0,0,1.19,1.53,5.74,5.74,0,0,0,1.6,1.11A2.1,2.1,0,0,0,338.32,110.27Zm0,0a2.15,2.15,0,0,1-1.9,0,6.05,6.05,0,0,1-1.66-1.07,6.71,6.71,0,0,1-1.33-1.48,1.81,1.81,0,0,1-.33-1c0-.34.06-.67.1-1a36.8,36.8,0,0,1,.86-3.88,18.32,18.32,0,0,1,1.4-3.77,1.76,1.76,0,0,1,.92-.79,1.86,1.86,0,0,1,1.19,0,3.31,3.31,0,0,1,1.68,1.37,4.2,4.2,0,0,1,.63,2,16.55,16.55,0,0,1,0,2,34.35,34.35,0,0,1-.39,3.94c-.1.65-.23,1.3-.38,1.94A3.63,3.63,0,0,1,338.32,110.27Z" style="fill:#263238"></path><path d="M285.83,156.14s4.9,3.23,6.86,7.32,5.61,11.59,5.61,11.59-17.33,7.83-19.23,7.56-10.51-11.08-9.63-12.92S285.83,156.14,285.83,156.14Z" style="fill:#37474f"></path><path d="M288.93,181.79c7.74-1,35.81-30.18,35.09-36-.25-2-7.91-.59-12.71-3.85-4.51-3.08-6.45-11.91-9-11.23-5.17,1.39-20.22,20.9-21.88,25S280.69,182.82,288.93,181.79Z" style="fill:#FFC107"></path><g style="opacity:0.2"><path d="M298.91,166.12a.87.87,0,0,1-.57-1.18.87.87,0,1,1,.57,1.18Zm.59-1.41a.66.66,0,1,0,.45.9A.66.66,0,0,0,299.5,164.71Z"></path><path d="M304,160.72a.88.88,0,1,1,.67-1.61.88.88,0,0,1-.67,1.61Zm.59-1.41a.68.68,0,0,0-.76.39.66.66,0,0,0,.26.82.65.65,0,0,0,.95-.31A.66.66,0,0,0,304.62,159.31Z"></path><path d="M309,155.48a.88.88,0,1,1,1-.51A.87.87,0,0,1,309,155.48Zm.59-1.41a.66.66,0,1,0,.45.9A.67.67,0,0,0,309.62,154.07Z"></path><path d="M313.66,150.65a.89.89,0,0,1-.57-1.19.88.88,0,0,1,1.24-.42.87.87,0,0,1,.37,1.1A.88.88,0,0,1,313.66,150.65Zm.59-1.41a.65.65,0,0,0-.76.39.66.66,0,1,0,.76-.39Z"></path><path d="M301.68,166a31.71,31.71,0,0,0,4.7-3.87c1.47-1.4,2.85-2.9,4.2-4.42s2.61-3.12,3.84-4.73l1.81-2.45L318,148l-3.8,4.76c-1.29,1.56-2.56,3.13-3.91,4.64s-2.69,3-4.1,4.48c-.7.73-1.43,1.43-2.17,2.12A24.21,24.21,0,0,1,301.68,166Z"></path></g><path d="M281.1,159.09c2.69,4,1,23.69-3.79,26.17s-35.64-17.79-37.08-21-5.71-22.7-2.27-22.56S275.56,150.87,281.1,159.09Z" style="fill:#FFC107"></path><g style="opacity:0.2"><path d="M243.26,159.14a.88.88,0,0,1,1-.88.89.89,0,0,1,.75,1.08.88.88,0,0,1-1.73-.2Zm1.52.17a.67.67,0,1,0-.74.69A.67.67,0,0,0,244.78,159.31Z"></path><path d="M250.46,163.42a.88.88,0,1,1,.78.86A.88.88,0,0,1,250.46,163.42Zm1.52.17a.66.66,0,1,0-.74.69A.66.66,0,0,0,252,163.59Z"></path><path d="M257.24,167.75a.88.88,0,1,1,.78.86A.88.88,0,0,1,257.24,167.75Zm1.52.18a.67.67,0,1,0-.74.68A.66.66,0,0,0,258.76,167.93Z"></path><path d="M263.61,171.45a.88.88,0,0,1,1-.88.89.89,0,0,1,.75,1.08.88.88,0,0,1-1.73-.2Zm1.52.17a.67.67,0,1,0-.74.69A.67.67,0,0,0,265.13,171.62Z"></path><path d="M270.21,174.88a.88.88,0,1,1,.78.86A.88.88,0,0,1,270.21,174.88Zm1.52.18a.66.66,0,1,0-.74.68A.66.66,0,0,0,271.73,175.06Z"></path><path d="M276.63,178.24a.88.88,0,1,1,.78.86A.87.87,0,0,1,276.63,178.24Zm1.52.18a.67.67,0,0,0-1.31-.16.67.67,0,1,0,1.31.16Z"></path><path d="M240.77,161q4.17,2.94,8.47,5.71t8.65,5.42c2.93,1.74,5.86,3.47,8.86,5.09s6,3.16,9.15,4.54c-3-1.52-6-3.16-9-4.83s-5.89-3.4-8.8-5.16-5.8-3.54-8.7-5.34S243.64,162.78,240.77,161Z"></path></g><path d="M238.85,140.74c5.21-.47,9.9,5.29,11.68,10.48,2.72,8-.13,26.9-5.44,26.81S232.48,141.32,238.85,140.74Z" style="fill:#37474f"></path><path d="M236.61,198.85c-.06,2.07-2,30.06-3.93,31.92s-9.92,5.24-16,6.39c-8.06,1.53-19.08-.4-23.38-2.92s-11.56-30.82-10.36-31.8,26.83-8.05,36.33-7.17S236.66,197,236.61,198.85Z" style="fill:#37474f"></path><path d="M232.46,230a86,86,0,0,1-9.33,3.93,34.93,34.93,0,0,1-9.91,2.14,52.68,52.68,0,0,1-10.06-.62,98.44,98.44,0,0,1-9.75-2,76.63,76.63,0,0,0,9.71,2.14,53,53,0,0,0,10.09.7,35.16,35.16,0,0,0,10-2.23A71.71,71.71,0,0,0,232.46,230Z" style="fill:#263238"></path><path d="M232.89,227.67a88.54,88.54,0,0,1-9.73,4.1A36,36,0,0,1,212.83,234a54.63,54.63,0,0,1-10.48-.64,101.2,101.2,0,0,1-10.17-2.08,81,81,0,0,0,10.12,2.23,55.06,55.06,0,0,0,10.53.72,36.25,36.25,0,0,0,10.39-2.32A73.18,73.18,0,0,0,232.89,227.67Z" style="fill:#263238"></path><path d="M233.24,225.55a91.13,91.13,0,0,1-10.07,4.24,36.91,36.91,0,0,1-10.71,2.31,56.87,56.87,0,0,1-10.85-.66,102.3,102.3,0,0,1-10.53-2.16,84.73,84.73,0,0,0,10.49,2.31,57.15,57.15,0,0,0,10.89.75,38.15,38.15,0,0,0,10.77-2.4A77.8,77.8,0,0,0,233.24,225.55Z" style="fill:#263238"></path><path d="M232.89,223.64a91.19,91.19,0,0,1-10.07,4.25,37.58,37.58,0,0,1-10.7,2.31,57,57,0,0,1-10.86-.67,102.11,102.11,0,0,1-10.52-2.16,84.17,84.17,0,0,0,10.48,2.31,57.25,57.25,0,0,0,10.9.75,37.67,37.67,0,0,0,10.76-2.4A77.19,77.19,0,0,0,232.89,223.64Z" style="fill:#263238"></path><path d="M233.24,221.38a95,95,0,0,1-10.43,4.4,38.73,38.73,0,0,1-11.08,2.39,58.51,58.51,0,0,1-11.24-.69,109.59,109.59,0,0,1-10.9-2.23,88.87,88.87,0,0,0,10.86,2.38,57.94,57.94,0,0,0,11.28.77,38.88,38.88,0,0,0,11.14-2.48A80,80,0,0,0,233.24,221.38Z" style="fill:#263238"></path><path d="M233.81,218.9a95.27,95.27,0,0,1-10.7,4.52,39.87,39.87,0,0,1-11.39,2.46,60.83,60.83,0,0,1-11.54-.71,106.65,106.65,0,0,1-11.19-2.3,89.52,89.52,0,0,0,11.15,2.45,60.24,60.24,0,0,0,11.58.79,40,40,0,0,0,11.45-2.55A81.41,81.41,0,0,0,233.81,218.9Z" style="fill:#263238"></path><path d="M234.26,216.55a100.88,100.88,0,0,1-11.12,4.69,41.38,41.38,0,0,1-11.82,2.56,63.77,63.77,0,0,1-12-.74,114.44,114.44,0,0,1-11.62-2.39,94.48,94.48,0,0,0,11.57,2.54,63.32,63.32,0,0,0,12,.82,41.54,41.54,0,0,0,11.88-2.65A85.24,85.24,0,0,0,234.26,216.55Z" style="fill:#263238"></path><path d="M234.5,214.29a102.56,102.56,0,0,1-11.42,4.83,42.65,42.65,0,0,1-12.15,2.62,64,64,0,0,1-12.31-.76,115.85,115.85,0,0,1-11.94-2.45,97.57,97.57,0,0,0,11.9,2.6,64.18,64.18,0,0,0,12.35.84,42.48,42.48,0,0,0,12.21-2.71A88.55,88.55,0,0,0,234.5,214.29Z" style="fill:#263238"></path><path d="M234.86,211.8a107.05,107.05,0,0,1-11.62,4.87,43.71,43.71,0,0,1-12.35,2.66,66,66,0,0,1-12.51-.73,119.42,119.42,0,0,1-12.13-2.44,100.59,100.59,0,0,0,12.09,2.59,66.32,66.32,0,0,0,12.55.82,43.8,43.8,0,0,0,12.41-2.76A90.82,90.82,0,0,0,234.86,211.8Z" style="fill:#263238"></path><path d="M234.43,209.45a104.94,104.94,0,0,1-11.61,4.87A43.72,43.72,0,0,1,210.47,217a66.93,66.93,0,0,1-12.52-.74,118.69,118.69,0,0,1-12.12-2.44,96.33,96.33,0,0,0,12.08,2.59,66.37,66.37,0,0,0,12.56.82,44.29,44.29,0,0,0,12.41-2.75A90.74,90.74,0,0,0,234.43,209.45Z" style="fill:#263238"></path><path d="M234,207.1A105.16,105.16,0,0,1,222.39,212,43.71,43.71,0,0,1,210,214.64a65.22,65.22,0,0,1-12.51-.74,118.85,118.85,0,0,1-12.13-2.43,100.59,100.59,0,0,0,12.09,2.59,66.26,66.26,0,0,0,12.55.81,44.13,44.13,0,0,0,12.41-2.75A90.87,90.87,0,0,0,234,207.1Z" style="fill:#263238"></path><path d="M233.58,204.76A106.89,106.89,0,0,1,222,209.63a44.07,44.07,0,0,1-12.35,2.67,66.93,66.93,0,0,1-12.52-.74A118.69,118.69,0,0,1,185,209.12a100,100,0,0,0,12.08,2.59,66.37,66.37,0,0,0,12.56.82A44,44,0,0,0,222,209.77,90.69,90.69,0,0,0,233.58,204.76Z" style="fill:#263238"></path><path d="M234.54,202A110.75,110.75,0,0,1,222.46,207a45.71,45.71,0,0,1-12.84,2.77,68.93,68.93,0,0,1-13-.77,122.68,122.68,0,0,1-12.6-2.54,102.25,102.25,0,0,0,12.56,2.7,69.16,69.16,0,0,0,13.06.85,45.53,45.53,0,0,0,12.9-2.87A93.17,93.17,0,0,0,234.54,202Z" style="fill:#263238"></path><path d="M234.54,199.42a110.69,110.69,0,0,1-12.08,5.06,45.38,45.38,0,0,1-12.84,2.78,68.93,68.93,0,0,1-13-.77A122.68,122.68,0,0,1,184,204a102.25,102.25,0,0,0,12.56,2.7,69.16,69.16,0,0,0,13.06.85,45.88,45.88,0,0,0,12.9-2.87A94.58,94.58,0,0,0,234.54,199.42Z" style="fill:#263238"></path><path d="M234.54,196.88a110.69,110.69,0,0,1-12.08,5.06,45,45,0,0,1-12.84,2.77,68.93,68.93,0,0,1-13-.76,122.68,122.68,0,0,1-12.6-2.54,104.14,104.14,0,0,0,12.56,2.7,69.16,69.16,0,0,0,13.06.84,45.52,45.52,0,0,0,12.9-2.86A94.58,94.58,0,0,0,234.54,196.88Z" style="fill:#263238"></path><path d="M177,211.59c2.16,5.23,9.27,10.52,12.59,11.15,16.49,3.11,20.5-25.23,29.85-23.41,8,1.55,13.7,18,18.17,18.24,0,0,3.43-2.07,4.14-5.29,1-4.67.55-13.51,2.51-21.7.9-3.76,2.79-6.22,3.16-10.29,1.14-12.58.27-28.07-3.33-34.27-3.26-5.63-8.5-5.39-17.12-8.07-3.6-1.12-5.08-6.16-5.41-6.62s-5.33,2.53-8.49,2.8-17.27-3.7-18.13-4-1.69,4.27-2.61,5.19-7.27,3.44-7.59,3.57c-8.79,3.09-19.08,6.16-21.07,11.72C159.13,163.38,175.21,207.18,177,211.59Z" style="fill:#FFC107"></path><g style="opacity:0.2"><path d="M174.92,174.74a1.24,1.24,0,0,1,1.83.29,1.23,1.23,0,1,1-1.83-.29Zm1.17,1.81a.94.94,0,0,0-1-1.56.94.94,0,1,0,1,1.56Z"></path><path d="M177.07,185a1.24,1.24,0,1,1-.24,1.62A1.24,1.24,0,0,1,177.07,185Zm1.16,1.81a.93.93,0,0,0-1-1.55.93.93,0,1,0,1,1.55Z"></path><path d="M179.13,195a1.24,1.24,0,1,1-.24,1.61A1.24,1.24,0,0,1,179.13,195Zm1.17,1.81a1,1,0,0,0,.15-1.2.93.93,0,1,0-.15,1.2Z"></path><path d="M181,204.2a1.24,1.24,0,1,1-.24,1.61A1.24,1.24,0,0,1,181,204.2Zm1.17,1.81a1,1,0,0,0,.15-1.2.93.93,0,1,0-.15,1.2Z"></path><path d="M183.63,213.65a1.24,1.24,0,1,1-.24,1.62A1.24,1.24,0,0,1,183.63,213.65Zm1.16,1.81a.92.92,0,0,0,.15-1.19.92.92,0,1,0-.15,1.19Z"></path><path d="M171.62,173.76a89.09,89.09,0,0,0,1.62,11.48c.73,3.79,1.61,7.56,2.54,11.3s2,7.47,3.08,11.17l1.71,5.54,1.82,5.5-3.08-11.16c-1-3.73-2-7.45-2.94-11.2s-1.85-7.48-2.68-11.25c-.42-1.88-.8-3.77-1.16-5.66S171.82,175.68,171.62,173.76Z"></path></g><path d="M169.17,144.53c-5.21.24-9.08,6.58-10.13,12-1.61,8.28,3.78,26.63,9,25.82S175.57,144.23,169.17,144.53Z" style="fill:#37474f"></path><g style="opacity:0.1"><path d="M213.61,146.94c.9,4.15,1.65,8.34,2.35,12.53s1.27,8.4,1.72,12.64c.21,2.12.3,4.27.31,6.4s0,4.25-.05,6.38l-.23,6.36c-.12,2.13-.21,4.25-.39,6.37l-.1-6.37-.05-6.37c-.08-4.24,0-8.48-.48-12.68s-1-8.41-1.49-12.62S214.11,151.16,213.61,146.94Z"></path><path d="M241.91,188.44a6.62,6.62,0,0,1-2.43,1.06,25.41,25.41,0,0,1-2.6.51,27.42,27.42,0,0,1-5.31.32,63.5,63.5,0,0,1-10.35-1.9c1.75.08,3.5.21,5.24.38s3.47.38,5.19.52a10.73,10.73,0,0,0,1.26.06l1.29,0c.87,0,1.74-.07,2.6-.12s1.73-.11,2.59-.21A7.53,7.53,0,0,0,241.91,188.44Z"></path><path d="M209.55,189a34.68,34.68,0,0,1-6.36,2.87,22,22,0,0,1-3.42.89,30.18,30.18,0,0,1-3.52.29,67.55,67.55,0,0,1-7-.22,46.11,46.11,0,0,1-6.91-.95c1.16.1,2.32.11,3.47.12s2.32.06,3.47.06c2.31,0,4.62.05,6.92,0a32,32,0,0,0,3.41-.23,30,30,0,0,0,3.34-.68c1.11-.28,2.21-.62,3.3-1S208.46,189.37,209.55,189Z"></path></g><path d="M235,226.06c.77.36,2.33,10.05,2.05,11.33s-5.89,9.46-7.45,11.69-8.72,7.5-9.45,8-9.37.64-10.47,0-11.06-11.86-13.3-13.6-7.52-5.35-7.8-5.9-1.64-10-1.69-10.69,6.8.23,8.53,1.24,14.67,7.89,21.53,7.34,14.57-6.44,15.72-7.72S234.2,225.69,235,226.06Z" style="fill:#FFC107"></path><ellipse cx="161.91" cy="156.2" rx="7.94" ry="9.44" style="fill:#455a64"></ellipse><path d="M190.43,239.19s-1.85,7.72-5.21,10.37-9.51,7.55-9.51,7.55-10-12.69-10.22-14.65,5.85-12,10.55-11.59C178.13,231.06,190.43,239.19,190.43,239.19Z" style="fill:#37474f"></path><path d="M170.91,251.7c-1-4,9.14-16.26,13.51-16.78,1.45-.18,21.53,10.28,21.52,14s-18.33,21.43-22.34,19.22S171.46,253.79,170.91,251.7Z" style="fill:#FFC107"></path><path d="M170.91,251.7a5.52,5.52,0,0,1,.5-3,20.31,20.31,0,0,1,1.44-2.78,39,39,0,0,1,3.73-5,31.31,31.31,0,0,1,4.52-4.32,9.56,9.56,0,0,1,2.73-1.54,2.74,2.74,0,0,1,.39-.09.77.77,0,0,1,.4,0,4.78,4.78,0,0,1,.76.23c.49.18,1,.39,1.45.6a102.6,102.6,0,0,1,11,5.93,54.88,54.88,0,0,1,5.16,3.55,14.69,14.69,0,0,1,2.29,2.17,2.84,2.84,0,0,1,.73,1.43,3,3,0,0,1-.43,1.55,28,28,0,0,1-3.78,5c-1.4,1.55-2.87,3-4.39,4.47s-3.11,2.79-4.75,4.09a35.74,35.74,0,0,1-5.19,3.5,8,8,0,0,1-3,1,2.29,2.29,0,0,1-1.47-.54,12.89,12.89,0,0,1-1.23-1,42,42,0,0,1-4.16-4.68q-1.92-2.47-3.66-5.08c-.57-.87-1.14-1.74-1.67-2.64A15.89,15.89,0,0,1,170.91,251.7Zm0,0a16.18,16.18,0,0,0,1.44,2.77c.54.89,1.11,1.77,1.69,2.63q1.74,2.59,3.68,5.06a41.9,41.9,0,0,0,4.18,4.65,11.45,11.45,0,0,0,1.22,1,2.12,2.12,0,0,0,1.4.52,7.91,7.91,0,0,0,2.92-1,35.27,35.27,0,0,0,5.16-3.51c1.62-1.3,3.2-2.68,4.71-4.11s3-2.92,4.36-4.48a28.38,28.38,0,0,0,3.72-5,2.9,2.9,0,0,0,.41-1.42,2.74,2.74,0,0,0-.67-1.31,15.66,15.66,0,0,0-2.24-2.14,56.5,56.5,0,0,0-5.13-3.56,104.06,104.06,0,0,0-11-6c-.48-.21-.95-.42-1.44-.6a4.87,4.87,0,0,0-.74-.23.75.75,0,0,0-.36,0,1.62,1.62,0,0,0-.38.09,9.19,9.19,0,0,0-2.7,1.5,31.18,31.18,0,0,0-4.53,4.29,37.92,37.92,0,0,0-3.75,5,19.74,19.74,0,0,0-1.45,2.77A5.44,5.44,0,0,0,170.91,251.7Z" style="fill:#263238"></path><path d="M199.44,255.68c-1.16-1-.74-4,.89-6.05,2.28-2.9,4.39-3.45,5.59-2.87.84.4,1.74,3.2-.91,6.59C202.87,256.09,200.37,256.47,199.44,255.68Z" style="fill:#37474f"></path><path d="M206.33,247.64c2.49,1.7,9,7.41,9,8.68.26,3.64-3.47,5.63-5.09,5.08-.95-.32-9.66-4.3-10-6.58C199.88,251.38,204.78,246.58,206.33,247.64Z" style="fill:#FFC107"></path><path d="M206.33,247.64a53.06,53.06,0,0,1,4.23,3.38,46.4,46.4,0,0,1,3.91,3.77,6.9,6.9,0,0,1,.82,1.09,1.25,1.25,0,0,1,.17.68,3.83,3.83,0,0,1,0,.68,4.82,4.82,0,0,1-1.06,2.51,5.47,5.47,0,0,1-2.22,1.6,3.46,3.46,0,0,1-1.36.25,3.69,3.69,0,0,1-1.33-.41,51,51,0,0,1-4.82-2.49,22.79,22.79,0,0,1-2.28-1.48,6.92,6.92,0,0,1-1.93-1.92,2.55,2.55,0,0,1-.16-1.36,5.43,5.43,0,0,1,.33-1.32,9.17,9.17,0,0,1,1.34-2.36,10.58,10.58,0,0,1,1.92-1.92,5,5,0,0,1,1.17-.68A1.45,1.45,0,0,1,206.33,247.64Zm0,0a1.42,1.42,0,0,0-1.3,0,5,5,0,0,0-1.15.69A10.16,10.16,0,0,0,202,250.3a8.86,8.86,0,0,0-1.3,2.35,3.69,3.69,0,0,0-.15,2.59,6.91,6.91,0,0,0,1.91,1.86,25.71,25.71,0,0,0,2.28,1.44,53.09,53.09,0,0,0,4.83,2.42,3.55,3.55,0,0,0,1.24.41,3.33,3.33,0,0,0,1.28-.23,5.24,5.24,0,0,0,2.15-1.51,4.74,4.74,0,0,0,1.05-2.4,3.76,3.76,0,0,0,0-.67,1,1,0,0,0-.15-.61,5.86,5.86,0,0,0-.79-1.08,44.55,44.55,0,0,0-3.85-3.8A50.92,50.92,0,0,0,206.33,247.64Z" style="fill:#263238"></path><path d="M210.29,261.7c-.84-1.15.1-3.24,1.49-4.66,1.81-1.86,3.74-1.68,4.42-.65.44.66.39,2.83-1.73,4.39C212.92,261.91,211,262.6,210.29,261.7Z" style="fill:#37474f"></path><path d="M211.65,262c.93,2.65,3.54,8.26,6.41,10.16,1.91,1.27,3.08,0,3-1.69s-2.93-12.62-4.95-13.89S210.9,259.83,211.65,262Z" style="fill:#FFC107"></path><path d="M211.65,262a34.92,34.92,0,0,0,2.06,4.54,22.43,22.43,0,0,0,2.77,4.11,8.19,8.19,0,0,0,1.88,1.6,2.32,2.32,0,0,0,1.14.33,1.28,1.28,0,0,0,1-.48,2.72,2.72,0,0,0,.38-2.3c-.14-.81-.33-1.62-.54-2.42q-.59-2.42-1.35-4.79a28.81,28.81,0,0,0-1.85-4.61c-.38-.7-.86-1.54-1.72-1.57a3.17,3.17,0,0,0-2.12,1.11,7,7,0,0,0-1.37,2.06A3.75,3.75,0,0,0,211.65,262Zm0,0a3.72,3.72,0,0,1,.28-2.43,6.88,6.88,0,0,1,1.35-2.09,3.19,3.19,0,0,1,2.17-1.16,1.57,1.57,0,0,1,1.11.55,6.68,6.68,0,0,1,.71,1.05,29.5,29.5,0,0,1,1.92,4.61c.53,1.58,1,3.17,1.41,4.79.2.81.38,1.62.52,2.45a2.9,2.9,0,0,1-.46,2.45,1.45,1.45,0,0,1-1.16.53,2.59,2.59,0,0,1-1.22-.36,8.53,8.53,0,0,1-1.89-1.65,22.57,22.57,0,0,1-2.74-4.17A36.35,36.35,0,0,1,211.65,262Z" style="fill:#263238"></path><path d="M193.41,261.67c-1.13-1-.6-4,1.09-6,2.38-2.82,4.51-3.3,5.69-2.68.83.43,1.63,3.26-1.13,6.56C196.82,262.2,194.31,262.49,193.41,261.67Z" style="fill:#37474f"></path><path d="M200.57,253.87c2.43,1.78,8.71,7.7,8.75,9,.14,3.65-3.66,5.52-5.26,4.91-.94-.35-9.51-4.62-9.73-6.91C194,257.38,199.05,252.76,200.57,253.87Z" style="fill:#FFC107"></path><path d="M200.57,253.87a49.21,49.21,0,0,1,4.11,3.52,44.76,44.76,0,0,1,3.78,3.89,7.23,7.23,0,0,1,.78,1.12,1.2,1.2,0,0,1,.15.69,3.82,3.82,0,0,1,0,.68,4.79,4.79,0,0,1-1.15,2.47,5.43,5.43,0,0,1-2.27,1.52,3.34,3.34,0,0,1-1.37.21,3.59,3.59,0,0,1-1.31-.46,49.89,49.89,0,0,1-4.74-2.65,26.11,26.11,0,0,1-2.23-1.55,6.93,6.93,0,0,1-1.86-2,2.64,2.64,0,0,1-.11-1.36,5.87,5.87,0,0,1,.37-1.32,9.21,9.21,0,0,1,1.42-2.3,10.21,10.21,0,0,1,2-1.85,5.51,5.51,0,0,1,1.19-.65A1.47,1.47,0,0,1,200.57,253.87Zm0,0a1.42,1.42,0,0,0-1.3,0,5.44,5.44,0,0,0-1.18.65,10.47,10.47,0,0,0-2,1.87,9.13,9.13,0,0,0-1.38,2.3,3.71,3.71,0,0,0-.24,2.59,6.86,6.86,0,0,0,1.85,1.91,25.77,25.77,0,0,0,2.23,1.52,50.76,50.76,0,0,0,4.75,2.59,3.46,3.46,0,0,0,1.22.44,3,3,0,0,0,1.29-.18,5.18,5.18,0,0,0,2.19-1.44,4.57,4.57,0,0,0,1.13-2.36,3.68,3.68,0,0,0,.06-.66,1,1,0,0,0-.12-.62,6.82,6.82,0,0,0-.76-1.11,45.87,45.87,0,0,0-3.72-3.92A51,51,0,0,0,200.57,253.87Z" style="fill:#263238"></path><path d="M204.05,268.05c-.8-1.17.21-3.23,1.64-4.61,1.88-1.8,3.8-1.55,4.45-.5.42.68.29,2.84-1.89,4.33C206.67,268.35,204.69,269,204.05,268.05Z" style="fill:#37474f"></path><path d="M205.4,268.4c.84,2.68,3.25,8.37,6.06,10.37,1.87,1.33,3.09.09,3.09-1.58s-2.5-12.72-4.47-14.06S204.72,266.2,205.4,268.4Z" style="fill:#FFC107"></path><path d="M205.4,268.4a36.18,36.18,0,0,0,1.9,4.6,22.91,22.91,0,0,0,2.64,4.21,8.37,8.37,0,0,0,1.81,1.66,2.48,2.48,0,0,0,1.13.37,1.29,1.29,0,0,0,1-.45,2.73,2.73,0,0,0,.46-2.28c-.11-.82-.28-1.63-.46-2.44-.34-1.63-.73-3.24-1.19-4.84a28.28,28.28,0,0,0-1.69-4.67c-.36-.71-.81-1.56-1.66-1.62a3.13,3.13,0,0,0-2.16,1,7,7,0,0,0-1.44,2A3.74,3.74,0,0,0,205.4,268.4Zm0,0a3.73,3.73,0,0,1,.36-2.43,6.87,6.87,0,0,1,1.42-2,3.19,3.19,0,0,1,2.2-1.08,1.59,1.59,0,0,1,1.1.59,6.28,6.28,0,0,1,.67,1.06,28.09,28.09,0,0,1,1.76,4.68c.48,1.59.9,3.21,1.26,4.83.17.82.32,1.64.43,2.47a2.9,2.9,0,0,1-.54,2.43,1.45,1.45,0,0,1-1.18.5,2.57,2.57,0,0,1-1.21-.41,8.27,8.27,0,0,1-1.83-1.71,23.18,23.18,0,0,1-2.59-4.26A35.46,35.46,0,0,1,205.4,268.4Z" style="fill:#263238"></path><path d="M186.67,265.4c-.86-1.2.24-3.89,2.24-5.44,2.81-2.18,4.9-2.21,5.9-1.39.69.57.88,3.4-2.39,5.95C189.78,266.59,187.35,266.36,186.67,265.4Z" style="fill:#37474f"></path><path d="M195,259.49c1.93,2.17,6.66,9,6.44,10.22-.6,3.46-4.55,4.46-5.94,3.57-.81-.53-8-6.27-7.78-8.47C188.08,261.48,193.77,258.14,195,259.49Z" style="fill:#FFC107"></path><path d="M195,259.49a48.91,48.91,0,0,1,3.17,4.15,44.93,44.93,0,0,1,2.78,4.42,7.3,7.3,0,0,1,.51,1.22,1.09,1.09,0,0,1,0,.67,3.58,3.58,0,0,1-.18.64,4.67,4.67,0,0,1-1.58,2.09,5.21,5.21,0,0,1-2.44,1,3.38,3.38,0,0,1-1.34-.08,3.79,3.79,0,0,1-1.15-.69,49.48,49.48,0,0,1-3.93-3.45c-.62-.61-1.22-1.24-1.78-1.91a6.81,6.81,0,0,1-1.36-2.25,3.71,3.71,0,0,1,.78-2.47,8.78,8.78,0,0,1,1.81-1.89,9.76,9.76,0,0,1,2.23-1.35,5.36,5.36,0,0,1,1.26-.36A1.37,1.37,0,0,1,195,259.49Zm0,0a1.4,1.4,0,0,0-1.22-.27,5.24,5.24,0,0,0-1.24.38,9.49,9.49,0,0,0-2.21,1.37,8.59,8.59,0,0,0-1.77,1.89,3.59,3.59,0,0,0-.74,2.39,6.51,6.51,0,0,0,1.36,2.17A22.72,22.72,0,0,0,191,269.3a50.81,50.81,0,0,0,4,3.39,3.61,3.61,0,0,0,1.07.67,3,3,0,0,0,1.24.08,5,5,0,0,0,2.36-.91,4.48,4.48,0,0,0,1.54-2,3.09,3.09,0,0,0,.19-.61,1,1,0,0,0,0-.61,6.09,6.09,0,0,0-.49-1.19,44,44,0,0,0-2.71-4.45A50.41,50.41,0,0,0,195,259.49Z" style="fill:#263238"></path><path d="M195.42,273.55c-.52-1.26.84-3,2.47-4,2.12-1.32,3.88-.7,4.28.42.26.73-.29,2.74-2.64,3.7C197.82,274.37,195.83,274.55,195.42,273.55Z" style="fill:#37474f"></path><path d="M196.62,274.15c.25,2.69,1.38,8.55,3.62,11,1.49,1.63,2.89.7,3.23-.87s.2-12.48-1.39-14.14S196.42,272,196.62,274.15Z" style="fill:#FFC107"></path><path d="M196.62,274.15a32.91,32.91,0,0,0,.86,4.72,22.22,22.22,0,0,0,1.64,4.5,8,8,0,0,0,1.38,1.92,1.57,1.57,0,0,0,2.05.36,2.6,2.6,0,0,0,.89-2c.06-.8.07-1.6.06-2.39q0-2.4-.15-4.8a27,27,0,0,0-.65-4.74c-.2-.74-.45-1.63-1.24-1.86a3.08,3.08,0,0,0-2.24.54,6.58,6.58,0,0,0-1.76,1.61A3.55,3.55,0,0,0,196.62,274.15Zm0,0a3.55,3.55,0,0,1,.82-2.21,6.52,6.52,0,0,1,1.75-1.64,3.08,3.08,0,0,1,2.29-.58,1.52,1.52,0,0,1,.92.78,6.79,6.79,0,0,1,.42,1.14,28.35,28.35,0,0,1,.72,4.76c.13,1.6.2,3.2.21,4.81,0,.8,0,1.6-.09,2.41a2.8,2.8,0,0,1-1,2.18,1.38,1.38,0,0,1-1.21.23,2.44,2.44,0,0,1-1.06-.63,8,8,0,0,1-1.38-2,22.16,22.16,0,0,1-1.59-4.53A33,33,0,0,1,196.62,274.15Z" style="fill:#263238"></path><path d="M180.18,267.5c-.46-1.28,1.18-3.4,3.34-4.29,3-1.24,4.91-.74,5.59.24.47.68-.06,3.24-3.6,4.7C182.65,269.33,180.55,268.52,180.18,267.5Z" style="fill:#37474f"></path><path d="M189,264.31c1.18,2.41,3.68,9.67,3.2,10.69-1.41,2.93-5.17,2.83-6.17,1.69-.6-.67-5.59-7.57-4.82-9.46C182.41,264.36,188.3,262.81,189,264.31Z" style="fill:#FFC107"></path><path d="M189,264.31a47.87,47.87,0,0,1,1.79,4.47,41,41,0,0,1,1.36,4.63,5.42,5.42,0,0,1,.16,1.21,1.12,1.12,0,0,1-.16.6,3.51,3.51,0,0,1-.33.52,4.29,4.29,0,0,1-1.92,1.47,4.88,4.88,0,0,1-2.42.27,3.09,3.09,0,0,1-1.17-.41,3.15,3.15,0,0,1-.85-.9,44.45,44.45,0,0,1-2.64-4c-.4-.7-.78-1.41-1.11-2.15a6.23,6.23,0,0,1-.65-2.33,3.45,3.45,0,0,1,1.32-2,7.87,7.87,0,0,1,2.07-1.23,8.88,8.88,0,0,1,2.32-.64,4.39,4.39,0,0,1,1.2,0A1.29,1.29,0,0,1,189,264.31Zm0,0a1.33,1.33,0,0,0-1-.54,4.39,4.39,0,0,0-1.2,0,8.91,8.91,0,0,0-2.3.67,7.68,7.68,0,0,0-2,1.24,3.38,3.38,0,0,0-1.25,1.94,6,6,0,0,0,.66,2.27A23.71,23.71,0,0,0,183,272a46.47,46.47,0,0,0,2.68,4,3.16,3.16,0,0,0,.77.85,2.74,2.74,0,0,0,1.08.38,4.69,4.69,0,0,0,2.32-.22,4.13,4.13,0,0,0,1.87-1.4,2.53,2.53,0,0,0,.31-.49.84.84,0,0,0,.16-.54,5.94,5.94,0,0,0-.14-1.18,41.91,41.91,0,0,0-1.3-4.63C190.25,267.29,189.71,265.77,189,264.31Z" style="fill:#263238"></path><path d="M185,275.32c.13-1.25,2-2.07,3.76-2.17,2.31-.14,3.47,1.13,3.3,2.22-.11.7-1.44,2.09-3.77,1.85C186.6,277,184.9,276.31,185,275.32Z" style="fill:#37474f"></path><path d="M185.72,276.33c-1,2.3-2.63,7.55-1.88,10.52.5,2,2,1.84,3,.71s5.64-10.05,5.07-12.09S186.52,274.45,185.72,276.33Z" style="fill:#FFC107"></path><path d="M185.72,276.33a31.47,31.47,0,0,0-1.37,4.22,20.14,20.14,0,0,0-.64,4.37,7.45,7.45,0,0,0,.28,2.16c.2.68.77,1.33,1.5,1.19a2.4,2.4,0,0,0,1.62-1.27c.39-.62.75-1.27,1.1-1.92.7-1.3,1.37-2.62,2-4a25.13,25.13,0,0,0,1.55-4.13c.17-.69.35-1.52-.19-2.05a2.74,2.74,0,0,0-2.05-.55,6.29,6.29,0,0,0-2.13.53A3.31,3.31,0,0,0,185.72,276.33Zm0,0a3.33,3.33,0,0,1,1.63-1.44,6.39,6.39,0,0,1,2.15-.56,2.83,2.83,0,0,1,2.12.54,1.4,1.4,0,0,1,.4,1,5.84,5.84,0,0,1-.16,1.1,25.47,25.47,0,0,1-1.5,4.19c-.59,1.35-1.24,2.69-1.94,4-.35.65-.72,1.29-1.13,1.92a2.63,2.63,0,0,1-1.77,1.34,1.35,1.35,0,0,1-1.09-.35,2.31,2.31,0,0,1-.59-1,7.54,7.54,0,0,1-.25-2.22,20.31,20.31,0,0,1,.7-4.38A31,31,0,0,1,185.72,276.33Z" style="fill:#263238"></path><path d="M130.56,202s4.1-4.2,8.5-5.34,12.44-3.3,12.44-3.3,4.38,18.5,3.76,20.32-12.87,8.2-14.52,7S130.56,202,130.56,202Z" style="fill:#37474f"></path><path d="M135.65,214.89c.12,7.79,23.19,31.52,29.06,31,2.73-.24,2.12-6.79,5.67-10.64,4.09-4.44,11.1-3.18,10.66-6-.81-5.29-18.35-23.77-22.25-25.87S135.53,206.58,135.65,214.89Z" style="fill:#FFC107"></path><g style="opacity:0.2"><path d="M145.93,220.88a.87.87,0,1,1,1.53.82.86.86,0,0,1-1.12.26A.88.88,0,0,1,145.93,220.88Zm1.35.72a.67.67,0,0,0-.32-.79.65.65,0,1,0,.32.79Z"></path><path d="M150.8,226.51a.88.88,0,0,1,1.24-.45.87.87,0,1,1-1.24.45Zm1.35.72a.66.66,0,1,0-.94.36A.66.66,0,0,0,152.15,227.23Z"></path><path d="M155.53,232a.88.88,0,0,1,1.23-.45.87.87,0,1,1-1.23.45Zm1.35.72a.67.67,0,0,0-1.16-.62.67.67,0,1,0,1.16.62Z"></path><path d="M159.89,237.07a.88.88,0,1,1,.41,1.09A.89.89,0,0,1,159.89,237.07Zm1.35.72a.65.65,0,0,0-.32-.79.67.67,0,0,0-.84.17.67.67,0,0,0,.22,1A.66.66,0,0,0,161.24,237.79Z"></path><path d="M145.77,223.65a32.38,32.38,0,0,0,3.39,5.06c1.26,1.6,2.61,3.12,4,4.6s2.85,2.9,4.33,4.29l2.26,2,2.33,2-4.36-4.24c-1.43-1.43-2.88-2.85-4.25-4.34s-2.75-3-4.05-4.52c-.66-.77-1.29-1.56-1.91-2.36A28.46,28.46,0,0,1,145.77,223.65Z"></path></g><path d="M155.92,203.65c-3.66,3.12-23.43,3.64-26.44-.82s21.49-49.2,27.28-52.31c3.09-1.67,7.06,11.57,8.16,18.71C165.45,172.63,163.46,197.22,155.92,203.65Z" style="fill:#FFC107"></path><g style="opacity:0.2"><path d="M159.22,155.37a.88.88,0,1,1-.83.8A.88.88,0,0,1,159.22,155.37Zm-.12,1.52a.66.66,0,0,0,.6-.61.66.66,0,1,0-.6.61Z"></path><path d="M155.18,162.71a.88.88,0,1,1-.83.81A.87.87,0,0,1,155.18,162.71Zm-.12,1.52a.65.65,0,0,0,.6-.61.66.66,0,0,0-.5-.69.66.66,0,1,0-.1,1.3Z"></path><path d="M151.07,169.62a.88.88,0,1,1-.83.81A.87.87,0,0,1,151.07,169.62Zm-.13,1.53a.67.67,0,0,0,.11-1.31.66.66,0,1,0-.11,1.31Z"></path><path d="M147.59,176.11a.88.88,0,1,1-.84.81A.88.88,0,0,1,147.59,176.11Zm-.13,1.52a.66.66,0,0,0,.11-1.3.66.66,0,1,0-.11,1.3Z"></path><path d="M144.37,182.83a.88.88,0,1,1-.83.8A.86.86,0,0,1,144.37,182.83Zm-.13,1.52a.67.67,0,0,0,.11-1.31.66.66,0,1,0-.11,1.31Z"></path><path d="M141.22,189.35a.88.88,0,1,1-.83.8A.88.88,0,0,1,141.22,189.35Zm-.12,1.52a.67.67,0,0,0,.11-1.31.67.67,0,1,0-.11,1.31Z"></path><path d="M157.33,152.94q-2.81,4.27-5.43,8.65c-1.76,2.92-3.46,5.86-5.14,8.83s-3.27,6-4.79,9-3,6.13-4.24,9.29c1.42-3.09,3-6.12,4.54-9.14s3.2-6,4.87-9,3.35-5.92,5-8.87S155.59,155.87,157.33,152.94Z"></path></g></g></svg>
