<svg xmlns="http://www.w3.org/2000/svg" viewBox="0 0 500 500"><g id="freepik--background-complete--inject-64"><rect x="389.92" y="240.98" width="38.37" height="56.93" transform="translate(8.64 551.58) rotate(-68.53)" style="fill:#ebebeb"></rect><path d="M442.62,262.5a3,3,0,0,1-.68.28l-2,.72L432.62,266l-24.3,8.19-.2.07-.11-.19-.25-.44-12.91-22.57L391,244.22l-1-1.88a3.14,3.14,0,0,1-.32-.67,3.77,3.77,0,0,1,.41.62l1.12,1.83,4,6.79,13,22.49.26.44-.31-.11,24.36-8.05,7.38-2.37,2-.62A4.84,4.84,0,0,1,442.62,262.5Z" style="fill:#e0e0e0"></path><path d="M375.59,277.38c-.06-.12,5.85-3.45,13.2-7.43s13.38-7.11,13.45-7-5.84,3.45-13.2,7.43S375.66,277.51,375.59,277.38Z" style="fill:#e0e0e0"></path><path d="M420,269.45c.14,0,2.17,6.36,4.53,14.31s4.16,14.41,4,14.45-2.17-6.36-4.53-14.31S419.89,269.49,420,269.45Z" style="fill:#e0e0e0"></path><rect x="169.17" y="402.15" width="56.93" height="38.37" transform="translate(-167.37 132.63) rotate(-26.53)" style="fill:#ebebeb"></rect><path d="M214.91,391.79a5.33,5.33,0,0,1-.25.69l-.8,1.95c-.73,1.74-1.76,4.17-3,7.14l-10.18,23.55-.09.19-.21,0-.5-.11-25.4-5.51-7.69-1.73-2.08-.5a5.53,5.53,0,0,1-.72-.2,3.16,3.16,0,0,1,.74.1l2.1.4,7.72,1.57L200,424.65l.5.11-.29.15c4-9.16,7.67-17.44,10.32-23.48,1.33-2.95,2.41-5.36,3.18-7.08.37-.79.66-1.43.88-1.91A3.37,3.37,0,0,1,214.91,391.79Z" style="fill:#e0e0e0"></path><path d="M181.11,451.55c-.14,0,1.34-6.65,3.3-14.78s3.68-14.7,3.81-14.66-1.34,6.65-3.3,14.78S181.24,451.58,181.11,451.55Z" style="fill:#e0e0e0"></path><path d="M204.94,413.23c.06-.13,6.18,2.65,13.66,6.21S232.11,426,232,426.12s-6.17-2.65-13.66-6.21S204.88,413.35,204.94,413.23Z" style="fill:#e0e0e0"></path><path d="M130.87,262.58c19.36-12.92,24.08-37.36,23.67-59.4-.07-3.68.4-7.55-1.32-10.81s-5.83-5.52-9.19-4c-2.79,1.25-4,4.41-5.63,7a21.68,21.68,0,0,1-8.87,8.11c-2.39,1.18-5.34,1.88-7.66.57-3.19-1.8-3.5-6.19-3.42-9.85l.45-20.45c.08-3.65.15-7.39-1-10.88s-3.59-6.75-7.1-7.77-7.91.91-8.71,4.48c-.33,1.48,0,3-.17,4.55s-.87,3.19-2.34,3.59-2.95-.65-4-1.74c-3.77-3.75-6.29-8.55-8.64-13.31s-4.64-9.65-8-13.73-8.16-7.34-13.47-7.72-11,2.77-12.43,7.9,1.55,10.41,4.8,14.63a82,82,0,0,0,17,16.46c1.16.84,2.41,1.74,2.83,3.1.77,2.45-1.61,4.84-4.06,5.61-2.78.86-5.77.54-8.66.83s-6,1.5-7.19,4.18c-1.57,3.72,1.54,7.68,4.61,10.3A71.41,71.41,0,0,0,83.1,206.48c2.71,1,5.57,1.93,7.74,3.85s3.44,5.23,2.07,7.79-4.79,3.33-7.64,2.77-5.38-2.14-8.08-3.19c-5.06-2-11.65-1.73-15,2.57-2.18,2.82-2.44,6.8-1.4,10.22a26.62,26.62,0,0,0,5.47,9.12,71.29,71.29,0,0,0,30.1,21.56c11.75,4.22,22.68,5.48,34.49,1.41" style="fill:#ebebeb"></path><path d="M125.27,248.7a326.53,326.53,0,0,0-12.64-35.47q-1.92-4.64-3.79-9.14c-1.26-3-2.5-6-3.89-8.79a164,164,0,0,0-9-15.81c-3.09-4.89-6.22-9.42-9.16-13.64s-5.8-8.08-8.53-11.51a131,131,0,0,0-14.1-15.19c-1.8-1.66-3.24-2.91-4.22-3.74l-1.13-.94-.39-.3s.11.12.36.35l1.09,1c1,.86,2.37,2.12,4.15,3.8A138.32,138.32,0,0,1,78,154.58c2.71,3.43,5.52,7.32,8.46,11.53s6,8.77,9.11,13.66a164.24,164.24,0,0,1,8.91,15.77c1.39,2.82,2.62,5.76,3.87,8.77s2.51,6,3.79,9.13a331.81,331.81,0,0,1,12.66,35.4" style="fill:#e0e0e0"></path><path d="M104.81,195.25a9.28,9.28,0,0,0,.36-1.56c.2-1,.45-2.48.73-4.3.57-3.63,1.2-8.68,1.87-14.24s1.38-10.6,2-14.21c.32-1.81.6-3.27.8-4.28a10,10,0,0,0,.26-1.57,8.55,8.55,0,0,0-.47,1.53c-.27,1-.6,2.44-1,4.25-.75,3.6-1.52,8.64-2.19,14.21s-1.25,10.51-1.7,14.26c-.23,1.74-.42,3.19-.56,4.31A8.89,8.89,0,0,0,104.81,195.25Z" style="fill:#e0e0e0"></path><path d="M57.3,185.75a2.87,2.87,0,0,0,.49.08l1.41.14c1.22.12,3,.29,5.17.56,4.35.52,10.35,1.46,16.92,2.78s12.45,2.8,16.68,4c2.12.58,3.82,1.09,5,1.44l1.36.4a2.07,2.07,0,0,0,.49.11,1.77,1.77,0,0,0-.45-.21l-1.33-.5c-1.16-.42-2.84-1-5-1.62-4.21-1.29-10.1-2.81-16.68-4.15s-12.61-2.2-17-2.62c-2.19-.23-4-.34-5.2-.39l-1.42,0A1.56,1.56,0,0,0,57.3,185.75Z" style="fill:#e0e0e0"></path><path d="M124.75,247.81a2.56,2.56,0,0,0,.32-.57c.22-.44.5-1,.84-1.7.71-1.47,1.7-3.63,2.88-6.31,2.37-5.35,5.42-12.85,8.68-21.17s6.25-15.83,8.52-21.22l2.73-6.37.73-1.74a3.37,3.37,0,0,0,.23-.62,2.8,2.8,0,0,0-.33.57l-.83,1.7c-.72,1.47-1.7,3.63-2.88,6.31-2.38,5.35-5.42,12.85-8.68,21.17s-6.25,15.83-8.53,21.22l-2.72,6.37-.74,1.74A2.82,2.82,0,0,0,124.75,247.81Z" style="fill:#e0e0e0"></path><path d="M61.75,226.73a4,4,0,0,0,.63.25l1.83.62L71,229.85c5.7,1.91,13.54,4.64,22.2,7.68s16.52,5.71,22.26,7.53c2.86.9,5.19,1.62,6.81,2.08l1.86.52a2.79,2.79,0,0,0,.66.15,3.07,3.07,0,0,0-.63-.25l-1.83-.63-6.75-2.25c-5.7-1.9-13.54-4.63-22.2-7.67s-16.52-5.71-22.25-7.53c-2.87-.91-5.2-1.62-6.82-2.08l-1.86-.53A3,3,0,0,0,61.75,226.73Z" style="fill:#e0e0e0"></path><rect x="68.36" y="44.6" width="70.5" height="41.95" rx="7.04" style="fill:#e0e0e0"></rect><polyline points="111.24 85.22 127.91 100.02 129.28 85.48" style="fill:#e0e0e0"></polyline><path d="M94.44,66.18a4.11,4.11,0,1,1-4.11-4.11A4.11,4.11,0,0,1,94.44,66.18Z" style="fill:#fff"></path><path d="M108.56,66.18a4.11,4.11,0,1,1-4.1-4.11A4.1,4.1,0,0,1,108.56,66.18Z" style="fill:#fff"></path><path d="M122.69,66.18a4.11,4.11,0,1,1-4.1-4.11A4.11,4.11,0,0,1,122.69,66.18Z" style="fill:#fff"></path><rect x="336.28" y="89.38" width="38.37" height="56.93" transform="translate(115.72 405.54) rotate(-68.53)" style="fill:#ebebeb"></rect><path d="M389,110.9a3.28,3.28,0,0,1-.68.29l-2,.71L379,114.43l-24.31,8.19-.2.07-.11-.19-.25-.44L341.21,99.49c-1.6-2.86-2.92-5.19-3.86-6.87l-1-1.88a3.67,3.67,0,0,1-.33-.67,3.9,3.9,0,0,1,.42.62l1.11,1.83c1,1.66,2.33,4,4,6.79l13,22.49.25.45-.3-.12,24.35-8,7.39-2.38,2-.62A5.25,5.25,0,0,1,389,110.9Z" style="fill:#e0e0e0"></path><path d="M322,125.78c-.07-.12,5.84-3.45,13.19-7.43s13.38-7.11,13.45-7-5.84,3.45-13.2,7.43S322,125.91,322,125.78Z" style="fill:#e0e0e0"></path><path d="M366.39,117.85c.13,0,2.16,6.37,4.52,14.31s4.17,14.42,4,14.46-2.16-6.37-4.52-14.31S366.25,117.89,366.39,117.85Z" style="fill:#e0e0e0"></path></g><g id="freepik--Floor--inject-64"><path d="M468.1,466.42c0,.14-97.65.26-218.09.26s-218.11-.12-218.11-.26,97.63-.26,218.11-.26S468.1,466.27,468.1,466.42Z" style="fill:#263238"></path></g><g id="freepik--speech-bubbles--inject-64"><circle cx="257.9" cy="246.02" r="12.9" style="fill:#FFC107"></circle><circle cx="302.3" cy="246.02" r="12.9" style="fill:#FFC107"></circle><path d="M388.16,179.27a2.73,2.73,0,0,1,.76-.05,10.48,10.48,0,0,1,2.23.25,12.17,12.17,0,0,1,3.47,1.3,12.82,12.82,0,0,1,3.88,3.35,12.68,12.68,0,0,1,2.55,6,14,14,0,0,1,.16,1.85c0,.62,0,1.24,0,1.88,0,1.28,0,2.62,0,4,.05,5.55.09,11.93.15,19.08.07,14.31.15,31.71.25,51.74q0,7.51.06,15.5,0,4,0,8.11c0,1.37,0,2.75,0,4.14,0,.69,0,1.39,0,2.09a15.68,15.68,0,0,1-.2,2.26,13.65,13.65,0,0,1-13,11.4l-18.22.06,1.08-1c-1.18,12.81-2.42,26.34-3.72,40.38l-.2,2.19-1.7-1.4-48.91-40.3.8.28-100.22.05H193.85c-.8,0-1.53,0-2.38,0a13.79,13.79,0,0,1-10.94-5.82,14.09,14.09,0,0,1-2.15-4.61,18.27,18.27,0,0,1-.45-4.9q0-4.6,0-9.18,0-9.13,0-18.13c0-24,.05-47.1.07-69.13,0-2.75,0-5.49,0-8.2a14.48,14.48,0,0,1,.55-4.35,14.16,14.16,0,0,1,1.87-4,13.82,13.82,0,0,1,6.83-5.21,13.29,13.29,0,0,1,4.23-.77c1.36,0,2.63,0,3.95,0l30.36.06,54.49.16,78.91.41,21.45.25,5.58.13a10.64,10.64,0,0,1,1.9.13,9.54,9.54,0,0,1-1.9.13l-5.58.13-21.45.25-78.91.41-54.49.16-30.36.06c-1.29,0-2.64,0-3.9,0a10.9,10.9,0,0,0-3.52.65,11.49,11.49,0,0,0-5.65,4.34,11.75,11.75,0,0,0-2,7c0,2.71,0,5.45,0,8.2,0,22,.05,45.15.08,69.13q0,9,0,18.13v9.18a15.31,15.31,0,0,0,.38,4.26,11.3,11.3,0,0,0,8.57,8.23,12.06,12.06,0,0,0,2.08.25c.71,0,1.54,0,2.31,0H217.5l100.22.05h.45l.35.29,48.8,40.43-1.91.79c1.35-14,2.65-27.56,3.89-40.36l.09-1h1l18.16,0a11.61,11.61,0,0,0,11.1-9.65,13.71,13.71,0,0,0,.17-1.93c0-.7,0-1.4,0-2.09,0-1.39,0-2.77,0-4.14q0-4.11,0-8.11,0-8,.06-15.5c.1-20,.18-37.43.25-51.74.06-7.15.1-13.53.15-19.08,0-1.38,0-2.72,0-4,0-.64,0-1.26,0-1.88a14.13,14.13,0,0,0-.11-1.74,12.12,12.12,0,0,0-2.27-5.69,12.4,12.4,0,0,0-3.61-3.31,12.56,12.56,0,0,0-3.3-1.41C389.19,179.31,388.16,179.37,388.16,179.27Z" style="fill:#FFC107"></path><path d="M110.65,243.47H305.43a13.4,13.4,0,0,1,13.4,13.4V361.93a13.4,13.4,0,0,1-13.4,13.4H110.65a13.39,13.39,0,0,1-13.39-13.39V256.87A13.39,13.39,0,0,1,110.65,243.47Z" style="fill:#FFC107"></path><polyline points="232.04 371.11 284.43 417.63 288.73 371.94" style="fill:#FFC107"></polyline><circle cx="166.32" cy="311.26" r="12.9" style="fill:#fff"></circle><circle cx="210.72" cy="311.26" r="12.9" style="fill:#fff"></circle><circle cx="255.12" cy="311.26" r="12.9" style="fill:#fff"></circle><g style="opacity:0.30000000000000004"><path d="M310.56,244l-20.82-.61-161,0c13.38,13.31,32.51,20.43,51.3,22.07s37.68-1.22,56.27-4.44,37.26-6.82,56.13-6.68c4,0,8.11.2,11.81-1.28S311.11,248,310.56,244Z"></path></g><circle cx="346.7" cy="246.02" r="12.9" style="fill:#FFC107"></circle></g></svg>